<svg xmlns="http://www.w3.org/2000/svg" version="1.1" viewBox="1.39994215965271 1.6500000953674316 456.9188537597656 413.959716796875" width="460.00" height="417.00">
<g stroke-width="2.00" fill="none" stroke-linecap="butt">
<path stroke="#0f100c" d="&#10;  M 146.96 1.76&#10;  L 146.74 1.90&#10;  Q 146.54 2.03 146.70 2.20&#10;  Q 147.89 3.39 149.30 4.30&#10;  Q 150.60 5.12 152.42 5.11&#10;  C 163.73 5.03 175.75 5.86 186.20 5.75&#10;  Q 212.72 5.46 239.24 5.10&#10;  C 259.54 4.82 281.86 5.34 300.00 4.78&#10;  Q 324.97 4.01 345.58 4.82&#10;  C 355.78 5.23 366.04 4.99 376.26 5.32&#10;  Q 391.49 5.81 396.25 5.84&#10;  Q 408.38 5.92 420.51 5.92&#10;  C 427.59 5.91 436.47 5.11 444.50 5.27&#10;  C 450.01 5.38 453.97 10.53 448.97 14.67&#10;  Q 448.63 14.96 448.19 14.99&#10;  Q 446.58 15.14 445.00 15.13&#10;  Q 360.62 14.89 276.24 16.15&#10;  Q 266.48 16.30 256.26 16.06&#10;  C 238.60 15.65 221.22 15.25 203.24 15.48&#10;  Q 184.49 15.73 178.75 15.35&#10;  C 163.31 14.32 147.01 14.50 132.51 13.90&#10;  Q 111.54 13.04 90.57 12.60&#10;  C 87.58 12.54 83.86 12.95 80.31 12.67&#10;  Q 73.81 12.14 72.66 12.13&#10;  Q 59.24 11.98 45.83 12.06&#10;  C 36.00 12.12 24.30 11.27 13.50 11.49&#10;  C 10.22 11.56 7.62 10.70 4.52 9.84&#10;  A 0.58 0.58 0.0 0 0 3.79 10.29&#10;  L 2.95 14.64&#10;  Q 2.86 15.12 2.56 15.50&#10;  Q 1.72 16.56 1.77 18.21"/>
<path stroke="#181b15" d="&#10;  M 457.42 347.30&#10;  Q 454.36 344.55 451.86 341.77&#10;  Q 451.17 341.00 450.46 340.67&#10;  Q 449.26 340.10 448.66 340.28"/>
<path stroke="#5f3f87" d="&#10;  M 448.66 340.28&#10;  L 448.53 69.30&#10;  A 0.55 0.55 0.0 0 0 447.98 68.75&#10;  L 417.77 68.70&#10;  Q 417.27 68.70 417.26 69.21&#10;  Q 417.21 122.11 417.33 175.00&#10;  Q 417.48 242.95 416.52 310.91&#10;  Q 416.51 311.39 416.03 311.38&#10;  L 409.50 311.26"/>
<path stroke="#553783" d="&#10;  M 409.50 311.26&#10;  C 389.18 311.32 368.83 310.93 348.50 310.98&#10;  C 248.84 311.22 149.17 311.69 49.50 311.43&#10;  C 45.88 311.42 42.64 308.85 42.64 304.92&#10;  Q 42.64 247.32 42.55 189.69"/>
<path stroke="#1c1c2f" d="&#10;  M 42.55 189.69&#10;  Q 42.92 188.49 44.63 189.23&#10;  Q 45.06 189.41 45.52 189.36&#10;  Q 47.16 189.19 47.84 190.20"/>
<path stroke="#8a652e" d="&#10;  M 47.84 190.20&#10;  Q 47.51 191.02 48.06 191.73"/>
<path stroke="#8a3d30" d="&#10;  M 48.06 191.73&#10;  C 48.60 207.28 47.96 224.08 47.96 238.25&#10;  Q 47.96 253.38 47.75 268.50&#10;  C 47.74 269.54 48.29 271.00 48.29 272.19&#10;  Q 48.35 287.26 48.26 302.86&#10;  Q 48.25 303.74 49.13 303.72&#10;  C 52.88 303.63 56.78 304.30 60.30 304.29&#10;  Q 130.21 304.14 150.50 304.33&#10;  Q 200.82 304.82 230.88 304.31"/>
<path stroke="#8a652e" d="&#10;  M 230.88 304.31&#10;  L 409.69 304.34&#10;  Q 410.30 304.34 410.30 303.74&#10;  L 410.70 69.27&#10;  Q 410.70 68.62 410.05 68.62&#10;  L 233.73 68.59"/>
<path stroke="#181b1c" d="&#10;  M 233.73 68.59&#10;  Q 229.46 67.32 225.65 68.84"/>
<path stroke="#8a652e" d="&#10;  M 225.65 68.84&#10;  Q 225.60 68.80 225.56 68.76&#10;  Q 225.54 68.75 225.25 68.75&#10;  L 47.81 68.59&#10;  Q 47.64 68.59 47.51 68.69&#10;  Q 47.38 68.80 47.32 68.89"/>
<path stroke="#1c1c2f" d="&#10;  M 47.32 68.89&#10;  Q 44.98 68.21 42.53 68.68"/>
<path stroke="#453079" d="&#10;  M 42.53 68.68&#10;  L 33.87 68.56"/>
<path stroke="#5f3f87" d="&#10;  M 33.87 68.56&#10;  L 11.10 68.56&#10;  Q 10.54 68.56 10.53 69.13&#10;  L 10.43 77.76"/>
<path stroke="#181b15" d="&#10;  M 10.43 77.76&#10;  L 10.10 88.51&#10;  Q 10.08 88.98 9.63 88.86&#10;  L 9.31 88.78&#10;  Q 9.03 88.71 9.13 88.45&#10;  Q 9.23 88.18 9.18 87.96&#10;  A 0.18 0.18 0.0 0 0 8.82 88.01&#10;  Q 8.79 90.96 5.81 91.15&#10;  Q 5.41 91.17 5.09 91.44&#10;  L 4.39 92.05&#10;  Q 3.82 92.55 3.47 91.87&#10;  L 2.88 90.74&#10;  A 0.40 0.40 0.0 0 0 2.13 90.92&#10;  L 1.73 111.55"/>
<path stroke="#fe8b4c" d="&#10;  M 225.66 188.70&#10;  Q 217.74 189.52 209.75 190.27&#10;  Q 207.80 190.45 205.85 191.76&#10;  Q 205.44 192.04 204.94 192.09&#10;  L 201.03 192.47"/>
<path stroke="#a86440" d="&#10;  M 201.03 192.47&#10;  L 135.55 192.27"/>
<path stroke="#8d6638" d="&#10;  M 135.55 192.27&#10;  L 65.31 191.49"/>
<path stroke="#fe8b4c" d="&#10;  M 65.31 191.49&#10;  L 48.06 191.73"/>
<path stroke="#8d3e3a" d="&#10;  M 65.31 191.49&#10;  L 65.32 196.16"/>
<path stroke="#a93d42" d="&#10;  M 65.32 196.16&#10;  L 65.33 202.03"/>
<path stroke="#8d3e3a" d="&#10;  M 65.33 202.03&#10;  L 65.34 205.69&#10;  Q 65.34 206.26 65.90 206.26&#10;  Q 122.15 206.41 178.40 206.32&#10;  Q 182.48 206.31 190.56 207.04&#10;  Q 198.73 207.77 206.99 207.15&#10;  Q 207.47 207.11 207.47 206.62&#10;  L 207.39 200.18"/>
<path stroke="#a93d42" d="&#10;  M 207.39 200.18&#10;  L 207.19 193.38&#10;  Q 207.17 192.77 206.56 192.74&#10;  L 201.03 192.47"/>
<path stroke="#573b85" d="&#10;  M 10.59 95.96&#10;  Q 10.47 184.94 10.38 273.91&#10;  C 10.38 278.57 9.88 284.53 9.85 290.25&#10;  Q 9.71 315.13 9.78 339.92&#10;  A 0.63 0.63 0.0 0 0 10.41 340.55&#10;  L 24.76 340.58"/>
<path stroke="#1d201b" d="&#10;  M 287.36 351.29&#10;  Q 282.34 350.32 280.75 350.12&#10;  Q 279.01 349.91 276.72 350.75"/>
<path stroke="#655e55" d="&#10;  M 276.72 350.75&#10;  L 239.33 350.82"/>
<path stroke="#181b15" d="&#10;  M 239.33 350.82&#10;  L 235.74 350.82"/>
<path stroke="#655e55" d="&#10;  M 235.74 350.82&#10;  L 182.08 350.68&#10;  Q 181.73 350.68 181.73 351.03&#10;  L 181.80 400.70&#10;  A 0.65 0.65 0.0 0 0 182.45 401.35&#10;  L 229.94 401.54"/>
<path stroke="#1d201b" d="&#10;  M 229.94 401.54&#10;  L 235.94 401.80&#10;  A 0.83 0.83 0.0 0 1 236.74 402.61&#10;  L 236.89 407.51&#10;  A 0.80 0.80 0.0 0 0 237.78 408.29&#10;  Q 238.71 408.18 238.87 408.96&#10;  A 0.35 0.35 0.0 0 1 238.43 409.37&#10;  Q 237.78 409.17 237.21 409.61&#10;  Q 236.44 410.21 237.41 410.32&#10;  L 245.55 411.21"/>
<path stroke="#8d58ee" d="&#10;  M 33.87 68.56&#10;  L 33.71 101.53"/>
<path stroke="#9e5ff8" d="&#10;  M 33.71 101.53&#10;  C 33.91 106.34 33.41 111.30 33.54 115.82&#10;  C 33.83 125.61 32.92 136.91 32.83 145.06&#10;  Q 32.57 170.00 32.33 177.25&#10;  Q 32.09 184.64 32.24 189.96&#10;  C 32.88 213.28 32.61 236.68 32.54 260.01&#10;  C 32.50 276.34 33.28 290.65 35.09 306.01&#10;  C 35.77 311.77 43.10 313.38 47.53 315.44&#10;  Q 56.23 319.50 65.23 316.46&#10;  Q 65.48 316.38 65.57 316.60&#10;  Q 65.61 316.68 65.70 316.67&#10;  L 72.29 315.96&#10;  Q 72.74 315.92 73.12 315.67&#10;  Q 75.33 314.24 77.50 312.74&#10;  Q 78.41 312.11 79.12 312.02&#10;  Q 80.56 311.84 81.35 312.69&#10;  Q 81.56 312.91 81.84 312.82&#10;  Q 84.21 312.12 86.79 312.47&#10;  A 0.66 0.57 66.2 0 1 87.15 312.64&#10;  Q 87.83 313.26 88.59 312.98&#10;  Q 89.03 312.82 89.48 312.95&#10;  Q 92.07 313.65 94.53 314.66&#10;  Q 97.07 315.70 99.13 316.05&#10;  Q 105.80 317.17 112.53 317.72&#10;  Q 115.63 317.97 124.42 319.05&#10;  C 135.47 320.42 145.60 319.52 158.49 319.75&#10;  C 172.31 319.99 189.85 321.82 205.12 320.37&#10;  C 206.61 320.23 208.76 319.12 210.68 318.99&#10;  Q 244.36 316.78 272.00 317.82&#10;  Q 341.20 320.41 395.65 320.30&#10;  C 403.23 320.28 407.41 318.61 409.50 311.26"/>
<path stroke="#61438a" d="&#10;  M 448.66 340.28&#10;  L 24.76 340.58"/>
<path stroke="#9e5ff8" d="&#10;  M 24.76 340.58&#10;  Q 24.51 337.47 23.96 334.50&#10;  Q 23.33 331.12 23.37 328.43&#10;  C 23.59 313.33 22.69 297.49 22.69 283.25&#10;  Q 22.67 258.81 22.21 234.37&#10;  Q 22.09 228.59 22.17 217.63&#10;  Q 22.23 209.29 21.99 200.93&#10;  Q 21.97 200.44 21.70 200.04&#10;  Q 21.19 199.30 21.25 198.50&#10;  Q 21.76 191.79 21.40 185.71&#10;  Q 21.39 185.48 21.21 177.81&#10;  Q 21.11 173.69 20.16 168.26&#10;  Q 19.22 162.91 18.14 160.66&#10;  A 0.37 0.37 0.0 0 1 18.48 160.13&#10;  Q 18.62 160.13 18.78 160.10&#10;  Q 19.40 160.00 18.90 159.62&#10;  Q 16.90 158.10 16.06 155.76&#10;  Q 15.94 155.42 15.59 155.39&#10;  Q 13.14 155.22 13.14 153.01&#10;  A 0.77 0.77 0.0 0 0 11.62 152.83&#10;  Q 10.74 156.50 11.20 160.20&#10;  Q 11.21 160.23 11.18 160.23&#10;  Q 11.05 160.24 10.93 160.24&#10;  Q 10.67 160.25 10.67 159.99&#10;  L 10.59 95.96"/>
<path stroke="#61438a" d="&#10;  M 10.59 95.96&#10;  L 10.43 77.76"/>
<path stroke="#906a4b" d="&#10;  M 47.32 68.89&#10;  L 47.84 190.20"/>
<path stroke="#5b3ca0" d="&#10;  M 42.55 189.69&#10;  L 42.16 182.31"/>
<path stroke="#fe8b4c" d="&#10;  M 230.88 304.31&#10;  Q 234.26 298.57 234.28 292.75&#10;  Q 234.41 262.50 234.60 232.25&#10;  Q 234.61 229.92 233.49 229.10"/>
<path stroke="#8b6938" d="&#10;  M 233.73 68.59&#10;  L 233.49 229.10"/>
<path stroke="#8c413a" d="&#10;  M 233.49 229.10&#10;  L 226.57 229.79&#10;  A 0.74 0.73 -3.2 0 1 225.76 229.07&#10;  L 225.66 188.70"/>
<path stroke="#8b6938" d="&#10;  M 225.66 188.70&#10;  L 225.65 68.84"/>
<path stroke="#4b3596" d="&#10;  M 42.53 68.68&#10;  Q 42.17 108.31 41.83 147.89&#10;  C 41.74 158.28 42.32 170.82 42.16 182.31"/>
<path stroke="#8450ea" d="&#10;  M 42.16 182.31&#10;  Q 42.09 179.99 40.87 172.01&#10;  Q 40.21 167.70 39.81 154.06&#10;  Q 39.72 151.19 38.75 147.60&#10;  Q 37.19 141.83 37.05 135.87&#10;  Q 36.99 133.32 36.60 130.72&#10;  Q 36.21 128.14 36.11 125.53&#10;  C 36.05 123.65 35.23 122.02 34.98 120.11&#10;  Q 33.77 110.90 33.71 101.53"/>
<path stroke="#38182e" d="&#10;  M 135.55 192.27&#10;  Q 135.39 194.01 134.66 194.87&#10;  Q 134.29 195.30 133.73 195.25&#10;  Q 129.28 194.84 124.87 195.18&#10;  Q 118.80 195.65 116.08 195.61&#10;  Q 102.82 195.43 89.56 195.69&#10;  Q 88.54 195.71 77.45 195.49&#10;  Q 71.36 195.37 65.32 196.16"/>
<path stroke="#38182e" d="&#10;  M 207.39 200.18&#10;  Q 200.60 200.37 193.80 200.75&#10;  Q 186.68 201.15 180.19 200.98&#10;  Q 159.84 200.44 146.00 200.85&#10;  Q 113.57 201.82 91.75 201.42&#10;  Q 78.45 201.18 65.33 202.03"/>
<path stroke="#685f59" d="&#10;  M 229.94 401.54&#10;  L 275.49 401.49&#10;  Q 276.64 401.49 276.64 400.34&#10;  L 276.72 350.75"/>
<path stroke="#635a53" d="&#10;  M 235.74 350.82&#10;  L 233.29 354.24&#10;  A 0.81 0.81 0.0 0 1 231.85 353.96&#10;  C 231.02 350.51 224.59 351.16 221.91 351.18&#10;  A 1.39 1.37 4.8 0 0 220.56 352.31&#10;  C 218.78 361.92 220.93 372.88 233.79 370.63&#10;  C 243.24 368.98 244.38 357.15 239.33 350.82"/>
<path stroke="#5f3f87" d="&#10;  M 187.36 36.18&#10;  L 187.34 32.08"/>
<path stroke="#553783" d="&#10;  M 187.34 32.08&#10;  L 187.35 24.03&#10;  A 3.56 3.56 0.0 0 0 183.71 20.47&#10;  Q 167.05 20.84 151.25 21.42&#10;  Q 148.22 21.53 145.81 22.33&#10;  A 0.73 0.72 -11.4 0 0 145.31 23.07&#10;  C 145.70 27.98 144.64 33.30 144.70 37.27&#10;  Q 144.76 41.54 145.38 45.87&#10;  A 0.87 0.85 -3.8 0 0 146.24 46.61&#10;  L 186.76 46.50&#10;  Q 187.33 46.50 187.33 45.93&#10;  L 187.36 36.18"/>
<path stroke="#9e5ff8" d="&#10;  M 187.34 32.08&#10;  Q 183.50 32.12 179.75 32.37&#10;  C 176.66 32.58 174.00 34.00 171.19 35.19&#10;  A 0.72 0.72 0.0 0 0 171.49 36.57&#10;  L 187.36 36.18"/>
<path stroke="#868685" d="&#10;  M 30.77 40.72&#10;  L 32.77 45.68&#10;  Q 32.98 46.19 33.51 46.34&#10;  C 37.58 47.49 45.80 49.10 47.93 43.67&#10;  Q 51.13 35.51 47.31 27.82&#10;  Q 45.83 24.84 43.17 23.70&#10;  C 38.48 21.70 32.50 23.32 31.09 28.95&#10;  A 0.70 0.69 12.7 0 1 30.28 29.46&#10;  Q 26.62 28.70 23.38 30.37&#10;  Q 22.85 30.64 22.64 31.19&#10;  Q 21.22 34.84 22.62 38.50&#10;  Q 22.81 38.99 23.24 39.29&#10;  Q 26.38 41.51 30.17 40.42&#10;  A 0.50 0.50 0.0 0 1 30.77 40.72"/>
<path stroke="#868685" d="&#10;  M 81.27 25.23&#10;  C 73.63 19.65 63.39 23.88 61.82 33.17&#10;  C 60.69 39.88 63.35 47.32 71.01 48.25&#10;  Q 79.84 49.32 84.20 43.17&#10;  C 88.39 37.27 87.07 29.46 81.27 25.23"/>
<path stroke="#868685" d="&#10;  M 98.67 30.70&#10;  Q 96.51 36.94 98.77 42.18&#10;  Q 100.11 45.29 103.01 46.69&#10;  C 111.34 50.70 120.26 47.83 122.46 38.77&#10;  Q 123.60 34.05 121.32 29.99&#10;  Q 118.72 25.35 113.71 23.74&#10;  Q 108.57 22.08 103.05 24.94&#10;  Q 100.15 26.45 98.67 30.70"/>
<path stroke="#8b8b8b" d="&#10;  M 102.72 37.62&#10;  L 104.25 39.21&#10;  A 1.20 1.19 10.3 0 0 106.19 37.87&#10;  L 105.26 35.96"/>
<path stroke="#d3c9c5" d="&#10;  M 105.26 35.96&#10;  Q 105.98 34.39 108.12 33.85&#10;  Q 108.63 33.71 108.62 33.18&#10;  C 108.56 30.32 105.38 27.55 102.97 30.21&#10;  Q 99.58 33.95 102.72 37.62"/>
<path stroke="#685f59" d="&#10;  M 105.26 35.96&#10;  Q 103.07 35.39 102.72 37.62"/>
<path stroke="#d3c9c5" d="&#10;  M 102.38 40.72&#10;  Q 101.83 40.57 101.39 40.86&#10;  A 0.55 0.55 0.0 0 0 101.71 41.87&#10;  Q 102.94 41.84 103.15 40.68&#10;  Q 103.16 40.63 103.10 40.62&#10;  Q 102.90 40.59 102.72 40.69&#10;  A 0.49 0.46 38.1 0 1 102.38 40.72"/>
<path stroke="#8c6a37" d="&#10;  M 65.11 113.08&#10;  C 69.98 114.24 72.18 111.67 76.25 111.68&#10;  Q 131.54 111.79 186.86 111.71&#10;  Q 187.53 111.71 187.52 111.04&#10;  L 187.37 101.30&#10;  Q 187.37 100.73 186.79 100.72&#10;  L 64.72 100.62&#10;  Q 64.31 100.62 64.32 101.03&#10;  L 64.49 112.31&#10;  A 0.81 0.80 6.5 0 0 65.11 113.08"/>
<path stroke="#8b6938" d="&#10;  M 76.39 136.71&#10;  C 107.57 136.83 138.75 137.30 169.94 137.06&#10;  Q 170.53 137.06 170.53 136.47&#10;  L 170.51 125.02&#10;  A 0.52 0.52 0.0 0 0 169.99 124.50&#10;  Q 122.87 124.45 75.75 124.68&#10;  Q 74.08 124.69 72.25 124.75&#10;  A 0.89 0.88 -79.5 0 0 71.47 125.29&#10;  C 69.66 129.74 69.84 136.68 76.39 136.71"/>
<path stroke="#8c6a37" d="&#10;  M 179.30 162.21&#10;  A 0.78 0.78 0.0 0 0 180.07 161.50&#10;  L 180.94 151.26&#10;  A 0.78 0.78 0.0 0 0 180.17 150.41&#10;  L 95.28 149.51&#10;  A 0.78 0.78 0.0 0 0 94.49 150.29&#10;  L 94.49 161.77&#10;  A 0.78 0.78 0.0 0 0 95.27 162.55&#10;  L 179.30 162.21"/>
<path stroke="#8b6938" d="&#10;  M 104.37 170.36&#10;  L 101.87 168.82&#10;  A 0.69 0.67 60.9 0 0 101.50 168.71&#10;  L 77.86 168.67&#10;  A 3.16 3.16 0.0 0 0 74.69 171.83&#10;  L 74.66 179.78&#10;  Q 74.66 182.11 76.98 182.13&#10;  L 124.75 182.42&#10;  Q 125.29 182.42 125.33 181.88&#10;  Q 125.77 176.44 125.37 171.01&#10;  Q 125.19 168.49 122.50 168.37&#10;  Q 114.38 168.00 108.11 169.13&#10;  Q 107.64 169.21 107.22 169.01&#10;  Q 105.69 168.28 105.16 170.06&#10;  A 0.53 0.53 0.0 0 1 104.37 170.36"/>
<path stroke="#8b6938" d="&#10;  M 372.81 110.87&#10;  Q 377.40 113.51 382.25 111.23&#10;  Q 382.71 111.01 382.70 110.51&#10;  L 382.67 101.10&#10;  A 0.58 0.57 89.5 0 0 382.10 100.53&#10;  L 258.14 100.37&#10;  Q 257.65 100.37 257.65 100.86&#10;  L 257.73 108.97&#10;  A 1.74 1.73 89.5 0 0 259.47 110.69&#10;  L 371.43 110.50&#10;  A 2.76 2.75 -29.9 0 1 372.81 110.87"/>
<path stroke="#8b6938" d="&#10;  M 366.7192 124.5458&#10;  A 0.27 0.27 0.0 0 0 366.4487 124.2763&#10;  L 270.5089 124.4437&#10;  A 0.27 0.27 0.0 0 0 270.2393 124.7142&#10;  L 270.2608 137.0342&#10;  A 0.27 0.27 0.0 0 0 270.5313 137.3037&#10;  L 366.4711 137.1363&#10;  A 0.27 0.27 0.0 0 0 366.7407 136.8658&#10;  L 366.7192 124.5458"/>
<path stroke="#8c6a37" d="&#10;  M 366.51 154.09&#10;  L 366.50 150.77&#10;  Q 366.50 150.17 365.90 150.17&#10;  L 291.74 150.29&#10;  Q 291.26 150.29 291.26 150.76&#10;  L 291.28 161.00&#10;  A 0.92 0.91 -0.3 0 0 292.21 161.91&#10;  C 321.92 161.37 351.13 162.37 380.63 162.29&#10;  A 0.46 0.45 -0.0 0 0 381.09 161.84&#10;  L 381.07 155.88&#10;  A 1.19 1.19 0.0 0 0 379.88 154.69&#10;  L 367.09 154.67&#10;  Q 366.51 154.67 366.51 154.09"/>
<path stroke="#8c6a37" d="&#10;  M 320.39 182.50&#10;  A 0.56 0.56 0.0 0 0 320.93 182.10&#10;  L 324.68 169.06&#10;  A 0.56 0.56 0.0 0 0 324.15 168.35&#10;  L 273.88 168.24&#10;  A 0.56 0.56 0.0 0 0 273.32 168.80&#10;  L 273.27 181.95&#10;  A 0.56 0.56 0.0 0 0 273.83 182.51&#10;  L 320.39 182.50"/>
<path stroke="#8c6a37" d="&#10;  M 382.29 201.43&#10;  C 387.79 201.41 389.08 196.83 388.49 192.23&#10;  Q 388.44 191.80 388.01 191.80&#10;  L 259.31 191.61&#10;  A 0.59 0.59 0.0 0 0 258.72 192.19&#10;  L 258.65 200.55&#10;  Q 258.64 201.44 259.52 201.44&#10;  Q 321.66 201.62 382.29 201.43"/>
<path stroke="#8a652e" d="&#10;  M 372.97 248.92&#10;  Q 350.72 260.58 326.77 272.28&#10;  Q 323.73 273.77 320.54 275.01&#10;  C 315.02 277.17 317.95 282.98 322.52 282.92&#10;  C 324.34 282.90 327.41 281.17 328.98 280.13&#10;  Q 333.83 276.91 341.69 273.38&#10;  Q 358.46 265.85 383.65 252.43&#10;  Q 386.38 250.98 388.36 248.79&#10;  A 1.28 1.27 37.7 0 0 388.11 246.87&#10;  Q 386.13 245.58 383.83 244.54&#10;  Q 366.82 236.82 349.69 229.39&#10;  Q 344.02 226.92 338.17 224.91&#10;  C 332.88 223.10 326.93 219.96 320.74 218.31&#10;  A 1.40 1.40 0.0 0 0 319.05 219.23&#10;  L 317.40 224.31&#10;  Q 317.23 224.83 317.74 225.03&#10;  L 372.86 246.86&#10;  Q 375.17 247.78 372.97 248.92"/>
<path stroke="#8f6a35" d="&#10;  M 244.00 239.64&#10;  A 0.53 0.53 0.0 0 0 243.46 240.18&#10;  L 243.59 271.61&#10;  A 0.53 0.53 0.0 0 0 244.12 272.14&#10;  L 292.79 271.69&#10;  A 0.53 0.53 0.0 0 0 293.32 271.16&#10;  L 293.24 240.53&#10;  A 0.53 0.53 0.0 0 0 292.72 240.01&#10;  L 244.00 239.64"/>
<path stroke="#8c413a" d="&#10;  M 162.96 291.73&#10;  L 164.18 291.95&#10;  A 1.25 1.25 0.0 0 0 165.16 291.72&#10;  Q 187.37 274.72 207.10 254.91&#10;  A 1.52 1.52 0.0 0 0 206.60 252.43&#10;  L 165.30 235.64&#10;  Q 164.86 235.46 164.70 235.02&#10;  C 162.75 229.45 149.22 226.38 144.22 225.82&#10;  A 0.64 0.64 0.0 0 0 143.58 226.75&#10;  Q 147.26 233.97 154.07 237.21&#10;  Q 173.91 246.64 194.39 255.74&#10;  A 0.71 0.71 0.0 0 1 194.67 256.82&#10;  Q 194.21 257.44 193.37 258.11&#10;  Q 187.45 262.88 182.12 268.30&#10;  C 179.13 271.34 175.24 273.39 172.13 276.23&#10;  Q 165.05 282.73 158.00 289.26&#10;  Q 154.59 292.42 153.41 296.91&#10;  Q 152.21 301.46 156.42 302.54&#10;  A 1.55 1.55 0.0 0 0 157.62 302.35&#10;  Q 161.34 300.00 163.12 295.94&#10;  Q 163.31 295.51 163.17 295.07&#10;  L 162.34 292.43&#10;  Q 162.06 291.56 162.96 291.73"/>
<path stroke="#fe774e" d="&#10;  M 127.63 252.37&#10;  C 129.76 258.04 130.45 266.86 132.60 274.31&#10;  C 133.70 278.11 134.90 286.65 137.84 289.15&#10;  Q 142.45 293.07 146.08 297.54&#10;  A 0.57 0.57 0.0 0 0 147.09 297.13&#10;  C 146.72 292.78 145.83 286.16 147.94 282.37&#10;  C 150.02 278.62 153.27 273.13 151.99 268.84&#10;  Q 146.59 250.76 142.80 232.24&#10;  C 142.03 228.46 138.75 228.60 136.03 230.21&#10;  Q 130.62 233.38 127.84 239.16&#10;  A 1.03 0.91 89.5 0 1 127.51 239.54&#10;  L 125.57 240.84&#10;  Q 125.06 241.18 125.09 241.79&#10;  Q 125.27 246.13 127.63 252.37"/>
<path stroke="#8d3e3a" d="&#10;  M 74.46 248.71&#10;  Q 74.38 248.57 74.22 248.65&#10;  Q 74.08 248.72 74.05 248.87&#10;  Q 73.47 251.78 74.27 255.02"/>
<path stroke="#d6453c" d="&#10;  M 74.27 255.02&#10;  Q 74.82 256.62 74.58 258.82&#10;  A 0.61 0.60 -86.8 0 1 73.98 259.36&#10;  L 73.51 259.37&#10;  Q 73.05 259.37 72.94 258.92&#10;  Q 72.84 258.46 72.47 258.28"/>
<path stroke="#8d4339" d="&#10;  M 72.47 258.28&#10;  L 72.24 245.25&#10;  A 0.63 0.63 0.0 0 1 72.89 244.61&#10;  Q 83.17 244.93 93.58 244.68&#10;  Q 95.47 244.64 96.41 243.60&#10;  A 1.82 1.81 22.0 0 0 95.12 240.57&#10;  Q 91.94 240.46 89.46 241.65&#10;  Q 89.07 241.84 88.80 241.50&#10;  L 87.57 239.96&#10;  Q 87.18 239.48 86.58 239.62&#10;  Q 80.88 240.97 75.13 239.95&#10;  C 73.12 239.60 71.43 239.59 69.58 239.70&#10;  A 2.20 2.18 -1.7 0 0 67.51 241.88&#10;  L 67.51 270.75&#10;  Q 67.51 271.34 68.10 271.35&#10;  L 88.54 271.41&#10;  A 0.73 0.73 0.0 0 0 89.27 270.65&#10;  Q 89.22 269.33 90.14 268.44&#10;  Q 90.57 268.03 90.61 267.44&#10;  Q 91.28 257.69 90.00 248.02&#10;  A 1.77 1.75 -3.4 0 0 88.27 246.50&#10;  L 74.76 246.41&#10;  A 0.65 0.64 -76.7 0 0 74.16 246.79&#10;  Q 73.72 247.78 74.46 248.71"/>
<path stroke="#652527" d="&#10;  M 72.47 258.28&#10;  C 72.24 261.39 70.80 267.74 75.19 268.47&#10;  Q 75.82 268.58 75.81 267.94&#10;  Q 75.72 259.38 75.29 251.01&#10;  Q 75.19 249.15 74.46 248.71"/>
<path stroke="#652028" d="&#10;  M 74.46 248.71&#10;  Q 75.76 252.48 74.27 255.02"/>
<path stroke="#8d4339" d="&#10;  M 101.53 245.50&#10;  A 0.45 0.45 0.0 0 1 101.47 246.38&#10;  C 100.03 246.53 99.49 247.44 99.52 248.86&#10;  Q 99.73 259.76 100.42 270.75&#10;  A 0.61 0.59 90.0 0 0 100.98 271.32&#10;  Q 110.15 271.84 119.32 271.55&#10;  C 121.16 271.49 122.08 270.71 122.45 268.98&#10;  C 124.53 259.52 121.27 253.88 116.66 245.90&#10;  A 0.63 0.63 0.0 0 1 117.24 244.95&#10;  C 119.44 245.09 123.87 245.41 124.30 242.43&#10;  A 1.75 1.74 -84.5 0 0 122.66 240.43&#10;  L 108.57 239.73&#10;  A 0.60 0.57 32.3 0 0 108.27 239.79&#10;  C 104.96 241.44 102.54 238.01 99.13 240.78&#10;  Q 98.73 241.11 98.69 241.63&#10;  Q 98.49 244.77 101.53 245.50"/>
<path stroke="#8f4237" d="&#10;  M 93.16 254.22&#10;  L 93.17 266.25"/>
<path stroke="#8d4339" d="&#10;  M 93.17 266.25&#10;  Q 91.32 267.99 90.97 270.96&#10;  Q 90.91 271.48 91.44 271.48&#10;  L 97.90 271.44&#10;  Q 98.43 271.44 98.46 270.90&#10;  Q 99.05 258.02 98.67 251.49&#10;  Q 98.58 249.97 96.99 248.31&#10;  Q 96.66 247.97 96.27 248.24&#10;  Q 93.32 250.36 93.16 254.22"/>
<path stroke="#1e2221" d="&#10;  M 93.17 266.25&#10;  Q 94.01 260.29 93.16 254.22"/>
<path stroke="#8d4339" d="&#10;  M 81.82 265.80&#10;  A 0.54 0.53 -42.8 0 1 81.86 264.80&#10;  Q 83.01 264.41 83.33 265.57&#10;  A 0.45 0.45 0.0 0 0 84.22 265.45&#10;  L 84.19 251.30&#10;  Q 84.19 250.65 83.55 250.64&#10;  L 80.39 250.58&#10;  Q 79.86 250.57 79.78 251.10&#10;  C 79.33 254.37 78.38 267.24 82.91 268.25&#10;  A 0.92 0.92 0.0 0 0 83.47 266.51&#10;  L 81.82 265.80"/>
<path stroke="#8f6a35" d="&#10;  M 259.3291 243.2152&#10;  A 0.28 0.28 0.0 0 0 259.0447 242.9397&#10;  L 250.0858 243.0804&#10;  A 0.28 0.28 0.0 0 0 249.8103 243.3648&#10;  L 249.8109 243.4048&#10;  A 0.28 0.28 0.0 0 0 250.0953 243.6803&#10;  L 259.0542 243.5396&#10;  A 0.28 0.28 0.0 0 0 259.3297 243.2552&#10;  L 259.3291 243.2152"/>
<path stroke="#8f6a35" d="&#10;  M 288.5520 248.5443&#10;  A 0.80 0.80 0.0 0 0 287.7534 247.7429&#10;  L 250.0334 247.6771&#10;  A 0.80 0.80 0.0 0 0 249.2320 248.4757&#10;  L 249.2280 250.7557&#10;  A 0.80 0.80 0.0 0 0 250.0266 251.5571&#10;  L 287.7466 251.6229&#10;  A 0.80 0.80 0.0 0 0 288.5480 250.8243&#10;  L 288.5520 248.5443"/>
<path stroke="#8f6a35" d="&#10;  M 288.8781 255.2054&#10;  A 0.82 0.82 0.0 0 0 288.0566 254.3869&#10;  L 250.0967 254.4531&#10;  A 0.82 0.82 0.0 0 0 249.2781 255.2746&#10;  L 249.2819 257.4546&#10;  A 0.82 0.82 0.0 0 0 250.1034 258.2731&#10;  L 288.0633 258.2069&#10;  A 0.82 0.82 0.0 0 0 288.8819 257.3854&#10;  L 288.8781 255.2054"/>
<path stroke="#8f6a35" d="&#10;  M 287.75 265.26&#10;  A 0.78 0.78 0.0 0 0 288.53 264.44&#10;  L 288.41 262.18&#10;  A 0.78 0.78 0.0 0 0 287.63 261.44&#10;  L 249.72 261.28&#10;  A 0.78 0.78 0.0 0 0 248.94 262.17&#10;  L 249.29 264.62&#10;  A 0.78 0.78 0.0 0 0 250.06 265.29&#10;  L 287.75 265.26"/>
<path stroke="#8d4339" d="&#10;  M 107.38 253.99&#10;  L 106.17 254.36&#10;  A 0.73 0.73 0.0 0 0 105.66 255.15&#10;  Q 106.17 258.91 106.38 262.73&#10;  Q 106.52 265.26 107.78 266.35&#10;  C 109.28 267.65 113.97 268.21 114.68 265.49&#10;  Q 117.24 255.66 111.08 247.95&#10;  Q 109.97 246.55 107.72 246.42&#10;  Q 107.18 246.39 107.21 246.93&#10;  L 107.57 253.72&#10;  A 0.27 0.27 0.0 0 1 107.38 253.99"/>
<path stroke="#8f4237" d="&#10;  M 114.33 263.00&#10;  L 108.33 255.17&#10;  Q 108.13 254.91 108.08 255.24&#10;  L 108.01 255.68&#10;  Q 107.92 256.24 108.28 256.69&#10;  Q 110.53 259.51 110.85 263.12&#10;  Q 110.91 263.78 111.58 263.77&#10;  L 113.99 263.72&#10;  A 0.45 0.44 70.6 0 0 114.33 263.00"/>
</g>
<path fill="#080906" d="&#10;  M 146.96 1.76&#10;  L 146.74 1.90&#10;  Q 146.54 2.03 146.70 2.20&#10;  Q 147.89 3.39 149.30 4.30&#10;  Q 150.60 5.12 152.42 5.11&#10;  C 163.73 5.03 175.75 5.86 186.20 5.75&#10;  Q 212.72 5.46 239.24 5.10&#10;  C 259.54 4.82 281.86 5.34 300.00 4.78&#10;  Q 324.97 4.01 345.58 4.82&#10;  C 355.78 5.23 366.04 4.99 376.26 5.32&#10;  Q 391.49 5.81 396.25 5.84&#10;  Q 408.38 5.92 420.51 5.92&#10;  C 427.59 5.91 436.47 5.11 444.50 5.27&#10;  C 450.01 5.38 453.97 10.53 448.97 14.67&#10;  Q 448.63 14.96 448.19 14.99&#10;  Q 446.58 15.14 445.00 15.13&#10;  Q 360.62 14.89 276.24 16.15&#10;  Q 266.48 16.30 256.26 16.06&#10;  C 238.60 15.65 221.22 15.25 203.24 15.48&#10;  Q 184.49 15.73 178.75 15.35&#10;  C 163.31 14.32 147.01 14.50 132.51 13.90&#10;  Q 111.54 13.04 90.57 12.60&#10;  C 87.58 12.54 83.86 12.95 80.31 12.67&#10;  Q 73.81 12.14 72.66 12.13&#10;  Q 59.24 11.98 45.83 12.06&#10;  C 36.00 12.12 24.30 11.27 13.50 11.49&#10;  C 10.22 11.56 7.62 10.70 4.52 9.84&#10;  A 0.58 0.58 0.0 0 0 3.79 10.29&#10;  L 2.95 14.64&#10;  Q 2.86 15.12 2.56 15.50&#10;  Q 1.72 16.56 1.77 18.21&#10;  L 1.90 2.43&#10;  Q 1.90 1.80 2.54 1.80&#10;  L 146.96 1.76&#10;  Z"/>
<path fill="#161712" d="&#10;  M 457.42 347.30&#10;  Q 454.36 344.55 451.86 341.77&#10;  Q 451.17 341.00 450.46 340.67&#10;  Q 449.26 340.10 448.66 340.28&#10;  L 448.53 69.30&#10;  A 0.55 0.55 0.0 0 0 447.98 68.75&#10;  L 417.77 68.70&#10;  Q 417.27 68.70 417.26 69.21&#10;  Q 417.21 122.11 417.33 175.00&#10;  Q 417.48 242.95 416.52 310.91&#10;  Q 416.51 311.39 416.03 311.38&#10;  L 409.50 311.26&#10;  C 389.18 311.32 368.83 310.93 348.50 310.98&#10;  C 248.84 311.22 149.17 311.69 49.50 311.43&#10;  C 45.88 311.42 42.64 308.85 42.64 304.92&#10;  Q 42.64 247.32 42.55 189.69&#10;  Q 42.92 188.49 44.63 189.23&#10;  Q 45.06 189.41 45.52 189.36&#10;  Q 47.16 189.19 47.84 190.20&#10;  Q 47.51 191.02 48.06 191.73&#10;  C 48.60 207.28 47.96 224.08 47.96 238.25&#10;  Q 47.96 253.38 47.75 268.50&#10;  C 47.74 269.54 48.29 271.00 48.29 272.19&#10;  Q 48.35 287.26 48.26 302.86&#10;  Q 48.25 303.74 49.13 303.72&#10;  C 52.88 303.63 56.78 304.30 60.30 304.29&#10;  Q 130.21 304.14 150.50 304.33&#10;  Q 200.82 304.82 230.88 304.31&#10;  L 409.69 304.34&#10;  Q 410.30 304.34 410.30 303.74&#10;  L 410.70 69.27&#10;  Q 410.70 68.62 410.05 68.62&#10;  L 233.73 68.59&#10;  Q 229.46 67.32 225.65 68.84&#10;  Q 225.60 68.80 225.56 68.76&#10;  Q 225.54 68.75 225.25 68.75&#10;  L 47.81 68.59&#10;  Q 47.64 68.59 47.51 68.69&#10;  Q 47.38 68.80 47.32 68.89&#10;  Q 44.98 68.21 42.53 68.68&#10;  L 33.87 68.56&#10;  L 11.10 68.56&#10;  Q 10.54 68.56 10.53 69.13&#10;  L 10.43 77.76&#10;  L 10.10 88.51&#10;  Q 10.08 88.98 9.63 88.86&#10;  L 9.31 88.78&#10;  Q 9.03 88.71 9.13 88.45&#10;  Q 9.23 88.18 9.18 87.96&#10;  A 0.18 0.18 0.0 0 0 8.82 88.01&#10;  Q 8.79 90.96 5.81 91.15&#10;  Q 5.41 91.17 5.09 91.44&#10;  L 4.39 92.05&#10;  Q 3.82 92.55 3.47 91.87&#10;  L 2.88 90.74&#10;  A 0.40 0.40 0.0 0 0 2.13 90.92&#10;  L 1.73 111.55&#10;  L 1.77 18.21&#10;  Q 1.72 16.56 2.56 15.50&#10;  Q 2.86 15.12 2.95 14.64&#10;  L 3.79 10.29&#10;  A 0.58 0.58 0.0 0 1 4.52 9.84&#10;  C 7.62 10.70 10.22 11.56 13.50 11.49&#10;  C 24.30 11.27 36.00 12.12 45.83 12.06&#10;  Q 59.24 11.98 72.66 12.13&#10;  Q 73.81 12.14 80.31 12.67&#10;  C 83.86 12.95 87.58 12.54 90.57 12.60&#10;  Q 111.54 13.04 132.51 13.90&#10;  C 147.01 14.50 163.31 14.32 178.75 15.35&#10;  Q 184.49 15.73 203.24 15.48&#10;  C 221.22 15.25 238.60 15.65 256.26 16.06&#10;  Q 266.48 16.30 276.24 16.15&#10;  Q 360.62 14.89 445.00 15.13&#10;  Q 446.58 15.14 448.19 14.99&#10;  Q 448.63 14.96 448.97 14.67&#10;  C 453.97 10.53 450.01 5.38 444.50 5.27&#10;  C 436.47 5.11 427.59 5.91 420.51 5.92&#10;  Q 408.38 5.92 396.25 5.84&#10;  Q 391.49 5.81 376.26 5.32&#10;  C 366.04 4.99 355.78 5.23 345.58 4.82&#10;  Q 324.97 4.01 300.00 4.78&#10;  C 281.86 5.34 259.54 4.82 239.24 5.10&#10;  Q 212.72 5.46 186.20 5.75&#10;  C 175.75 5.86 163.73 5.03 152.42 5.11&#10;  Q 150.60 5.12 149.30 4.30&#10;  Q 147.89 3.39 146.70 2.20&#10;  Q 146.54 2.03 146.74 1.90&#10;  L 146.96 1.76&#10;  L 456.58 1.65&#10;  Q 457.72 1.65 457.72 2.79&#10;  C 457.62 75.28 457.25 148.00 457.91 220.75&#10;  Q 458.46 281.63 458.27 342.50&#10;  Q 458.26 345.45 457.42 347.30&#10;  Z&#10;  M 187.36 36.18&#10;  L 187.34 32.08&#10;  L 187.35 24.03&#10;  A 3.56 3.56 0.0 0 0 183.71 20.47&#10;  Q 167.05 20.84 151.25 21.42&#10;  Q 148.22 21.53 145.81 22.33&#10;  A 0.73 0.72 -11.4 0 0 145.31 23.07&#10;  C 145.70 27.98 144.64 33.30 144.70 37.27&#10;  Q 144.76 41.54 145.38 45.87&#10;  A 0.87 0.85 -3.8 0 0 146.24 46.61&#10;  L 186.76 46.50&#10;  Q 187.33 46.50 187.33 45.93&#10;  L 187.36 36.18&#10;  Z&#10;  M 30.77 40.72&#10;  L 32.77 45.68&#10;  Q 32.98 46.19 33.51 46.34&#10;  C 37.58 47.49 45.80 49.10 47.93 43.67&#10;  Q 51.13 35.51 47.31 27.82&#10;  Q 45.83 24.84 43.17 23.70&#10;  C 38.48 21.70 32.50 23.32 31.09 28.95&#10;  A 0.70 0.69 12.7 0 1 30.28 29.46&#10;  Q 26.62 28.70 23.38 30.37&#10;  Q 22.85 30.64 22.64 31.19&#10;  Q 21.22 34.84 22.62 38.50&#10;  Q 22.81 38.99 23.24 39.29&#10;  Q 26.38 41.51 30.17 40.42&#10;  A 0.50 0.50 0.0 0 1 30.77 40.72&#10;  Z&#10;  M 81.27 25.23&#10;  C 73.63 19.65 63.39 23.88 61.82 33.17&#10;  C 60.69 39.88 63.35 47.32 71.01 48.25&#10;  Q 79.84 49.32 84.20 43.17&#10;  C 88.39 37.27 87.07 29.46 81.27 25.23&#10;  Z&#10;  M 98.67 30.70&#10;  Q 96.51 36.94 98.77 42.18&#10;  Q 100.11 45.29 103.01 46.69&#10;  C 111.34 50.70 120.26 47.83 122.46 38.77&#10;  Q 123.60 34.05 121.32 29.99&#10;  Q 118.72 25.35 113.71 23.74&#10;  Q 108.57 22.08 103.05 24.94&#10;  Q 100.15 26.45 98.67 30.70&#10;  Z"/>
<path fill="#9457f3" d="&#10;  M 187.34 32.08&#10;  Q 183.50 32.12 179.75 32.37&#10;  C 176.66 32.58 174.00 34.00 171.19 35.19&#10;  A 0.72 0.72 0.0 0 0 171.49 36.57&#10;  L 187.36 36.18&#10;  L 187.33 45.93&#10;  Q 187.33 46.50 186.76 46.50&#10;  L 146.24 46.61&#10;  A 0.87 0.85 -3.8 0 1 145.38 45.87&#10;  Q 144.76 41.54 144.70 37.27&#10;  C 144.64 33.30 145.70 27.98 145.31 23.07&#10;  A 0.73 0.72 -11.4 0 1 145.81 22.33&#10;  Q 148.22 21.53 151.25 21.42&#10;  Q 167.05 20.84 183.71 20.47&#10;  A 3.56 3.56 0.0 0 1 187.35 24.03&#10;  L 187.34 32.08&#10;  Z"/>
<path fill="#f5f5f7" d="&#10;  M 30.17 40.42&#10;  Q 26.38 41.51 23.24 39.29&#10;  Q 22.81 38.99 22.62 38.50&#10;  Q 21.22 34.84 22.64 31.19&#10;  Q 22.85 30.64 23.38 30.37&#10;  Q 26.62 28.70 30.28 29.46&#10;  A 0.70 0.69 12.7 0 0 31.09 28.95&#10;  C 32.50 23.32 38.48 21.70 43.17 23.70&#10;  Q 45.83 24.84 47.31 27.82&#10;  Q 51.13 35.51 47.93 43.67&#10;  C 45.80 49.10 37.58 47.49 33.51 46.34&#10;  Q 32.98 46.19 32.77 45.68&#10;  L 30.77 40.72&#10;  A 0.50 0.50 0.0 0 0 30.17 40.42&#10;  Z"/>
<path fill="#f5f5f7" d="&#10;  M 81.27 25.23&#10;  C 87.07 29.46 88.39 37.27 84.20 43.17&#10;  Q 79.84 49.32 71.01 48.25&#10;  C 63.35 47.32 60.69 39.88 61.82 33.17&#10;  C 63.39 23.88 73.63 19.65 81.27 25.23&#10;  Z"/>
<path fill="#f5f5f7" d="&#10;  M 98.67 30.70&#10;  Q 100.15 26.45 103.05 24.94&#10;  Q 108.57 22.08 113.71 23.74&#10;  Q 118.72 25.35 121.32 29.99&#10;  Q 123.60 34.05 122.46 38.77&#10;  C 120.26 47.83 111.34 50.70 103.01 46.69&#10;  Q 100.11 45.29 98.77 42.18&#10;  Q 96.51 36.94 98.67 30.70&#10;  Z&#10;  M 102.72 37.62&#10;  L 104.25 39.21&#10;  A 1.20 1.19 10.3 0 0 106.19 37.87&#10;  L 105.26 35.96&#10;  Q 105.98 34.39 108.12 33.85&#10;  Q 108.63 33.71 108.62 33.18&#10;  C 108.56 30.32 105.38 27.55 102.97 30.21&#10;  Q 99.58 33.95 102.72 37.62&#10;  Z&#10;  M 102.38 40.72&#10;  Q 101.83 40.57 101.39 40.86&#10;  A 0.55 0.55 0.0 0 0 101.71 41.87&#10;  Q 102.94 41.84 103.15 40.68&#10;  Q 103.16 40.63 103.10 40.62&#10;  Q 102.90 40.59 102.72 40.69&#10;  A 0.49 0.46 38.1 0 1 102.38 40.72&#10;  Z"/>
<path fill="#b09d93" d="&#10;  M 105.26 35.96&#10;  Q 103.07 35.39 102.72 37.62&#10;  Q 99.58 33.95 102.97 30.21&#10;  C 105.38 27.55 108.56 30.32 108.62 33.18&#10;  Q 108.63 33.71 108.12 33.85&#10;  Q 105.98 34.39 105.26 35.96&#10;  Z"/>
<path fill="#a767fc" d="&#10;  M 187.34 32.08&#10;  L 187.36 36.18&#10;  L 171.49 36.57&#10;  A 0.72 0.72 0.0 0 1 171.19 35.19&#10;  C 174.00 34.00 176.66 32.58 179.75 32.37&#10;  Q 183.50 32.12 187.34 32.08&#10;  Z"/>
<path fill="#20211f" d="&#10;  M 105.26 35.96&#10;  L 106.19 37.87&#10;  A 1.20 1.19 10.3 0 1 104.25 39.21&#10;  L 102.72 37.62&#10;  Q 103.07 35.39 105.26 35.96&#10;  Z"/>
<path fill="#b09d93" d="&#10;  M 102.72 40.69&#10;  Q 102.90 40.59 103.10 40.62&#10;  Q 103.16 40.63 103.15 40.68&#10;  Q 102.94 41.84 101.71 41.87&#10;  A 0.55 0.55 0.0 0 1 101.39 40.86&#10;  Q 101.83 40.57 102.38 40.72&#10;  A 0.49 0.46 38.1 0 0 102.72 40.69&#10;  Z"/>
<path fill="#191f25" d="&#10;  M 233.73 68.59&#10;  L 233.49 229.10&#10;  L 226.57 229.79&#10;  A 0.74 0.73 -3.2 0 1 225.76 229.07&#10;  L 225.66 188.70&#10;  L 225.65 68.84&#10;  Q 229.46 67.32 233.73 68.59&#10;  Z"/>
<path fill="#a767fc" d="&#10;  M 33.87 68.56&#10;  L 33.71 101.53&#10;  C 33.91 106.34 33.41 111.30 33.54 115.82&#10;  C 33.83 125.61 32.92 136.91 32.83 145.06&#10;  Q 32.57 170.00 32.33 177.25&#10;  Q 32.09 184.64 32.24 189.96&#10;  C 32.88 213.28 32.61 236.68 32.54 260.01&#10;  C 32.50 276.34 33.28 290.65 35.09 306.01&#10;  C 35.77 311.77 43.10 313.38 47.53 315.44&#10;  Q 56.23 319.50 65.23 316.46&#10;  Q 65.48 316.38 65.57 316.60&#10;  Q 65.61 316.68 65.70 316.67&#10;  L 72.29 315.96&#10;  Q 72.74 315.92 73.12 315.67&#10;  Q 75.33 314.24 77.50 312.74&#10;  Q 78.41 312.11 79.12 312.02&#10;  Q 80.56 311.84 81.35 312.69&#10;  Q 81.56 312.91 81.84 312.82&#10;  Q 84.21 312.12 86.79 312.47&#10;  A 0.66 0.57 66.2 0 1 87.15 312.64&#10;  Q 87.83 313.26 88.59 312.98&#10;  Q 89.03 312.82 89.48 312.95&#10;  Q 92.07 313.65 94.53 314.66&#10;  Q 97.07 315.70 99.13 316.05&#10;  Q 105.80 317.17 112.53 317.72&#10;  Q 115.63 317.97 124.42 319.05&#10;  C 135.47 320.42 145.60 319.52 158.49 319.75&#10;  C 172.31 319.99 189.85 321.82 205.12 320.37&#10;  C 206.61 320.23 208.76 319.12 210.68 318.99&#10;  Q 244.36 316.78 272.00 317.82&#10;  Q 341.20 320.41 395.65 320.30&#10;  C 403.23 320.28 407.41 318.61 409.50 311.26&#10;  L 416.03 311.38&#10;  Q 416.51 311.39 416.52 310.91&#10;  Q 417.48 242.95 417.33 175.00&#10;  Q 417.21 122.11 417.26 69.21&#10;  Q 417.27 68.70 417.77 68.70&#10;  L 447.98 68.75&#10;  A 0.55 0.55 0.0 0 1 448.53 69.30&#10;  L 448.66 340.28&#10;  L 24.76 340.58&#10;  Q 24.51 337.47 23.96 334.50&#10;  Q 23.33 331.12 23.37 328.43&#10;  C 23.59 313.33 22.69 297.49 22.69 283.25&#10;  Q 22.67 258.81 22.21 234.37&#10;  Q 22.09 228.59 22.17 217.63&#10;  Q 22.23 209.29 21.99 200.93&#10;  Q 21.97 200.44 21.70 200.04&#10;  Q 21.19 199.30 21.25 198.50&#10;  Q 21.76 191.79 21.40 185.71&#10;  Q 21.39 185.48 21.21 177.81&#10;  Q 21.11 173.69 20.16 168.26&#10;  Q 19.22 162.91 18.14 160.66&#10;  A 0.37 0.37 0.0 0 1 18.48 160.13&#10;  Q 18.62 160.13 18.78 160.10&#10;  Q 19.40 160.00 18.90 159.62&#10;  Q 16.90 158.10 16.06 155.76&#10;  Q 15.94 155.42 15.59 155.39&#10;  Q 13.14 155.22 13.14 153.01&#10;  A 0.77 0.77 0.0 0 0 11.62 152.83&#10;  Q 10.74 156.50 11.20 160.20&#10;  Q 11.21 160.23 11.18 160.23&#10;  Q 11.05 160.24 10.93 160.24&#10;  Q 10.67 160.25 10.67 159.99&#10;  L 10.59 95.96&#10;  L 10.43 77.76&#10;  L 10.53 69.13&#10;  Q 10.54 68.56 11.10 68.56&#10;  L 33.87 68.56&#10;  Z"/>
<path fill="#7348e0" d="&#10;  M 33.87 68.56&#10;  L 42.53 68.68&#10;  Q 42.17 108.31 41.83 147.89&#10;  C 41.74 158.28 42.32 170.82 42.16 182.31&#10;  Q 42.09 179.99 40.87 172.01&#10;  Q 40.21 167.70 39.81 154.06&#10;  Q 39.72 151.19 38.75 147.60&#10;  Q 37.19 141.83 37.05 135.87&#10;  Q 36.99 133.32 36.60 130.72&#10;  Q 36.21 128.14 36.11 125.53&#10;  C 36.05 123.65 35.23 122.02 34.98 120.11&#10;  Q 33.77 110.90 33.71 101.53&#10;  L 33.87 68.56&#10;  Z"/>
<path fill="#22214c" d="&#10;  M 47.32 68.89&#10;  L 47.84 190.20&#10;  Q 47.16 189.19 45.52 189.36&#10;  Q 45.06 189.41 44.63 189.23&#10;  Q 42.92 188.49 42.55 189.69&#10;  L 42.16 182.31&#10;  C 42.32 170.82 41.74 158.28 41.83 147.89&#10;  Q 42.17 108.31 42.53 68.68&#10;  Q 44.98 68.21 47.32 68.89&#10;  Z"/>
<path fill="#fdb24a" d="&#10;  M 225.65 68.84&#10;  L 225.66 188.70&#10;  Q 217.74 189.52 209.75 190.27&#10;  Q 207.80 190.45 205.85 191.76&#10;  Q 205.44 192.04 204.94 192.09&#10;  L 201.03 192.47&#10;  L 135.55 192.27&#10;  L 65.31 191.49&#10;  L 48.06 191.73&#10;  Q 47.51 191.02 47.84 190.20&#10;  L 47.32 68.89&#10;  Q 47.38 68.80 47.51 68.69&#10;  Q 47.64 68.59 47.81 68.59&#10;  L 225.25 68.75&#10;  Q 225.54 68.75 225.56 68.76&#10;  Q 225.60 68.80 225.65 68.84&#10;  Z&#10;  M 65.11 113.08&#10;  C 69.98 114.24 72.18 111.67 76.25 111.68&#10;  Q 131.54 111.79 186.86 111.71&#10;  Q 187.53 111.71 187.52 111.04&#10;  L 187.37 101.30&#10;  Q 187.37 100.73 186.79 100.72&#10;  L 64.72 100.62&#10;  Q 64.31 100.62 64.32 101.03&#10;  L 64.49 112.31&#10;  A 0.81 0.80 6.5 0 0 65.11 113.08&#10;  Z&#10;  M 76.39 136.71&#10;  C 107.57 136.83 138.75 137.30 169.94 137.06&#10;  Q 170.53 137.06 170.53 136.47&#10;  L 170.51 125.02&#10;  A 0.52 0.52 0.0 0 0 169.99 124.50&#10;  Q 122.87 124.45 75.75 124.68&#10;  Q 74.08 124.69 72.25 124.75&#10;  A 0.89 0.88 -79.5 0 0 71.47 125.29&#10;  C 69.66 129.74 69.84 136.68 76.39 136.71&#10;  Z&#10;  M 179.30 162.21&#10;  A 0.78 0.78 0.0 0 0 180.07 161.50&#10;  L 180.94 151.26&#10;  A 0.78 0.78 0.0 0 0 180.17 150.41&#10;  L 95.28 149.51&#10;  A 0.78 0.78 0.0 0 0 94.49 150.29&#10;  L 94.49 161.77&#10;  A 0.78 0.78 0.0 0 0 95.27 162.55&#10;  L 179.30 162.21&#10;  Z&#10;  M 104.37 170.36&#10;  L 101.87 168.82&#10;  A 0.69 0.67 60.9 0 0 101.50 168.71&#10;  L 77.86 168.67&#10;  A 3.16 3.16 0.0 0 0 74.69 171.83&#10;  L 74.66 179.78&#10;  Q 74.66 182.11 76.98 182.13&#10;  L 124.75 182.42&#10;  Q 125.29 182.42 125.33 181.88&#10;  Q 125.77 176.44 125.37 171.01&#10;  Q 125.19 168.49 122.50 168.37&#10;  Q 114.38 168.00 108.11 169.13&#10;  Q 107.64 169.21 107.22 169.01&#10;  Q 105.69 168.28 105.16 170.06&#10;  A 0.53 0.53 0.0 0 1 104.37 170.36&#10;  Z"/>
<path fill="#fdb24a" d="&#10;  M 233.73 68.59&#10;  L 410.05 68.62&#10;  Q 410.70 68.62 410.70 69.27&#10;  L 410.30 303.74&#10;  Q 410.30 304.34 409.69 304.34&#10;  L 230.88 304.31&#10;  Q 234.26 298.57 234.28 292.75&#10;  Q 234.41 262.50 234.60 232.25&#10;  Q 234.61 229.92 233.49 229.10&#10;  L 233.73 68.59&#10;  Z&#10;  M 372.81 110.87&#10;  Q 377.40 113.51 382.25 111.23&#10;  Q 382.71 111.01 382.70 110.51&#10;  L 382.67 101.10&#10;  A 0.58 0.57 89.5 0 0 382.10 100.53&#10;  L 258.14 100.37&#10;  Q 257.65 100.37 257.65 100.86&#10;  L 257.73 108.97&#10;  A 1.74 1.73 89.5 0 0 259.47 110.69&#10;  L 371.43 110.50&#10;  A 2.76 2.75 -29.9 0 1 372.81 110.87&#10;  Z&#10;  M 366.7192 124.5458&#10;  A 0.27 0.27 0.0 0 0 366.4487 124.2763&#10;  L 270.5089 124.4437&#10;  A 0.27 0.27 0.0 0 0 270.2393 124.7142&#10;  L 270.2608 137.0342&#10;  A 0.27 0.27 0.0 0 0 270.5313 137.3037&#10;  L 366.4711 137.1363&#10;  A 0.27 0.27 0.0 0 0 366.7407 136.8658&#10;  L 366.7192 124.5458&#10;  Z&#10;  M 366.51 154.09&#10;  L 366.50 150.77&#10;  Q 366.50 150.17 365.90 150.17&#10;  L 291.74 150.29&#10;  Q 291.26 150.29 291.26 150.76&#10;  L 291.28 161.00&#10;  A 0.92 0.91 -0.3 0 0 292.21 161.91&#10;  C 321.92 161.37 351.13 162.37 380.63 162.29&#10;  A 0.46 0.45 -0.0 0 0 381.09 161.84&#10;  L 381.07 155.88&#10;  A 1.19 1.19 0.0 0 0 379.88 154.69&#10;  L 367.09 154.67&#10;  Q 366.51 154.67 366.51 154.09&#10;  Z&#10;  M 320.39 182.50&#10;  A 0.56 0.56 0.0 0 0 320.93 182.10&#10;  L 324.68 169.06&#10;  A 0.56 0.56 0.0 0 0 324.15 168.35&#10;  L 273.88 168.24&#10;  A 0.56 0.56 0.0 0 0 273.32 168.80&#10;  L 273.27 181.95&#10;  A 0.56 0.56 0.0 0 0 273.83 182.51&#10;  L 320.39 182.50&#10;  Z&#10;  M 382.29 201.43&#10;  C 387.79 201.41 389.08 196.83 388.49 192.23&#10;  Q 388.44 191.80 388.01 191.80&#10;  L 259.31 191.61&#10;  A 0.59 0.59 0.0 0 0 258.72 192.19&#10;  L 258.65 200.55&#10;  Q 258.64 201.44 259.52 201.44&#10;  Q 321.66 201.62 382.29 201.43&#10;  Z&#10;  M 372.97 248.92&#10;  Q 350.72 260.58 326.77 272.28&#10;  Q 323.73 273.77 320.54 275.01&#10;  C 315.02 277.17 317.95 282.98 322.52 282.92&#10;  C 324.34 282.90 327.41 281.17 328.98 280.13&#10;  Q 333.83 276.91 341.69 273.38&#10;  Q 358.46 265.85 383.65 252.43&#10;  Q 386.38 250.98 388.36 248.79&#10;  A 1.28 1.27 37.7 0 0 388.11 246.87&#10;  Q 386.13 245.58 383.83 244.54&#10;  Q 366.82 236.82 349.69 229.39&#10;  Q 344.02 226.92 338.17 224.91&#10;  C 332.88 223.10 326.93 219.96 320.74 218.31&#10;  A 1.40 1.40 0.0 0 0 319.05 219.23&#10;  L 317.40 224.31&#10;  Q 317.23 224.83 317.74 225.03&#10;  L 372.86 246.86&#10;  Q 375.17 247.78 372.97 248.92&#10;  Z&#10;  M 244.00 239.64&#10;  A 0.53 0.53 0.0 0 0 243.46 240.18&#10;  L 243.59 271.61&#10;  A 0.53 0.53 0.0 0 0 244.12 272.14&#10;  L 292.79 271.69&#10;  A 0.53 0.53 0.0 0 0 293.32 271.16&#10;  L 293.24 240.53&#10;  A 0.53 0.53 0.0 0 0 292.72 240.01&#10;  L 244.00 239.64&#10;  Z"/>
<path fill="#1a1e17" d="&#10;  M 10.43 77.76&#10;  L 10.59 95.96&#10;  Q 10.47 184.94 10.38 273.91&#10;  C 10.38 278.57 9.88 284.53 9.85 290.25&#10;  Q 9.71 315.13 9.78 339.92&#10;  A 0.63 0.63 0.0 0 0 10.41 340.55&#10;  L 24.76 340.58&#10;  L 448.66 340.28&#10;  Q 449.26 340.10 450.46 340.67&#10;  Q 451.17 341.00 451.86 341.77&#10;  Q 454.36 344.55 457.42 347.30&#10;  Q 454.68 350.20 450.75 350.20&#10;  Q 369.42 350.20 288.08 350.81&#10;  Q 288.03 350.81 287.93 350.79&#10;  Q 287.62 350.71 287.36 351.29&#10;  Q 282.34 350.32 280.75 350.12&#10;  Q 279.01 349.91 276.72 350.75&#10;  L 239.33 350.82&#10;  L 235.74 350.82&#10;  L 182.08 350.68&#10;  Q 181.73 350.68 181.73 351.03&#10;  L 181.80 400.70&#10;  A 0.65 0.65 0.0 0 0 182.45 401.35&#10;  L 229.94 401.54&#10;  L 235.94 401.80&#10;  A 0.83 0.83 0.0 0 1 236.74 402.61&#10;  L 236.89 407.51&#10;  A 0.80 0.80 0.0 0 0 237.78 408.29&#10;  Q 238.71 408.18 238.87 408.96&#10;  A 0.35 0.35 0.0 0 1 238.43 409.37&#10;  Q 237.78 409.17 237.21 409.61&#10;  Q 236.44 410.21 237.41 410.32&#10;  L 245.55 411.21&#10;  L 122.92 410.54&#10;  Q 122.25 410.53 121.98 409.92&#10;  Q 120.33 406.12 122.45 402.63&#10;  A 1.51 1.50 -82.1 0 1 123.34 401.95&#10;  Q 126.16 401.19 130.00 401.24&#10;  Q 142.76 401.42 172.75 401.15&#10;  Q 173.19 401.15 173.19 400.70&#10;  L 173.18 350.93&#10;  Q 173.18 350.38 172.63 350.38&#10;  Q 92.20 350.23 11.87 350.34&#10;  C 7.77 350.34 4.96 350.66 3.11 347.39&#10;  Q 1.39 344.36 1.40 340.25&#10;  Q 1.47 225.89 1.73 111.55&#10;  L 2.13 90.92&#10;  A 0.40 0.40 0.0 0 1 2.88 90.74&#10;  L 3.47 91.87&#10;  Q 3.82 92.55 4.39 92.05&#10;  L 5.09 91.44&#10;  Q 5.41 91.17 5.81 91.15&#10;  Q 8.79 90.96 8.82 88.01&#10;  A 0.18 0.18 0.0 0 1 9.18 87.96&#10;  Q 9.23 88.18 9.13 88.45&#10;  Q 9.03 88.71 9.31 88.78&#10;  L 9.63 88.86&#10;  Q 10.08 88.98 10.10 88.51&#10;  L 10.43 77.76&#10;  Z"/>
<path fill="#9457f3" d="&#10;  M 10.59 95.96&#10;  L 10.67 159.99&#10;  Q 10.67 160.25 10.93 160.24&#10;  Q 11.05 160.24 11.18 160.23&#10;  Q 11.21 160.23 11.20 160.20&#10;  Q 10.74 156.50 11.62 152.83&#10;  A 0.77 0.77 0.0 0 1 13.14 153.01&#10;  Q 13.14 155.22 15.59 155.39&#10;  Q 15.94 155.42 16.06 155.76&#10;  Q 16.90 158.10 18.90 159.62&#10;  Q 19.40 160.00 18.78 160.10&#10;  Q 18.62 160.13 18.48 160.13&#10;  A 0.37 0.37 0.0 0 0 18.14 160.66&#10;  Q 19.22 162.91 20.16 168.26&#10;  Q 21.11 173.69 21.21 177.81&#10;  Q 21.39 185.48 21.40 185.71&#10;  Q 21.76 191.79 21.25 198.50&#10;  Q 21.19 199.30 21.70 200.04&#10;  Q 21.97 200.44 21.99 200.93&#10;  Q 22.23 209.29 22.17 217.63&#10;  Q 22.09 228.59 22.21 234.37&#10;  Q 22.67 258.81 22.69 283.25&#10;  C 22.69 297.49 23.59 313.33 23.37 328.43&#10;  Q 23.33 331.12 23.96 334.50&#10;  Q 24.51 337.47 24.76 340.58&#10;  L 10.41 340.55&#10;  A 0.63 0.63 0.0 0 1 9.78 339.92&#10;  Q 9.71 315.13 9.85 290.25&#10;  C 9.88 284.53 10.38 278.57 10.38 273.91&#10;  Q 10.47 184.94 10.59 95.96&#10;  Z"/>
<path fill="#191f25" d="&#10;  M 372.81 110.87&#10;  A 2.76 2.75 -29.9 0 0 371.43 110.50&#10;  L 259.47 110.69&#10;  A 1.74 1.73 89.5 0 1 257.73 108.97&#10;  L 257.65 100.86&#10;  Q 257.65 100.37 258.14 100.37&#10;  L 382.10 100.53&#10;  A 0.58 0.57 89.5 0 1 382.67 101.10&#10;  L 382.70 110.51&#10;  Q 382.71 111.01 382.25 111.23&#10;  Q 377.40 113.51 372.81 110.87&#10;  Z"/>
<path fill="#1b2223" d="&#10;  M 76.25 111.68&#10;  C 72.18 111.67 69.98 114.24 65.11 113.08&#10;  A 0.81 0.80 6.5 0 1 64.49 112.31&#10;  L 64.32 101.03&#10;  Q 64.31 100.62 64.72 100.62&#10;  L 186.79 100.72&#10;  Q 187.37 100.73 187.37 101.30&#10;  L 187.52 111.04&#10;  Q 187.53 111.71 186.86 111.71&#10;  Q 131.54 111.79 76.25 111.68&#10;  Z"/>
<path fill="#9457f3" d="&#10;  M 33.71 101.53&#10;  Q 33.77 110.90 34.98 120.11&#10;  C 35.23 122.02 36.05 123.65 36.11 125.53&#10;  Q 36.21 128.14 36.60 130.72&#10;  Q 36.99 133.32 37.05 135.87&#10;  Q 37.19 141.83 38.75 147.60&#10;  Q 39.72 151.19 39.81 154.06&#10;  Q 40.21 167.70 40.87 172.01&#10;  Q 42.09 179.99 42.16 182.31&#10;  L 42.55 189.69&#10;  Q 42.64 247.32 42.64 304.92&#10;  C 42.64 308.85 45.88 311.42 49.50 311.43&#10;  C 149.17 311.69 248.84 311.22 348.50 310.98&#10;  C 368.83 310.93 389.18 311.32 409.50 311.26&#10;  C 407.41 318.61 403.23 320.28 395.65 320.30&#10;  Q 341.20 320.41 272.00 317.82&#10;  Q 244.36 316.78 210.68 318.99&#10;  C 208.76 319.12 206.61 320.23 205.12 320.37&#10;  C 189.85 321.82 172.31 319.99 158.49 319.75&#10;  C 145.60 319.52 135.47 320.42 124.42 319.05&#10;  Q 115.63 317.97 112.53 317.72&#10;  Q 105.80 317.17 99.13 316.05&#10;  Q 97.07 315.70 94.53 314.66&#10;  Q 92.07 313.65 89.48 312.95&#10;  Q 89.03 312.82 88.59 312.98&#10;  Q 87.83 313.26 87.15 312.64&#10;  A 0.66 0.57 66.2 0 0 86.79 312.47&#10;  Q 84.21 312.12 81.84 312.82&#10;  Q 81.56 312.91 81.35 312.69&#10;  Q 80.56 311.84 79.12 312.02&#10;  Q 78.41 312.11 77.50 312.74&#10;  Q 75.33 314.24 73.12 315.67&#10;  Q 72.74 315.92 72.29 315.96&#10;  L 65.70 316.67&#10;  Q 65.61 316.68 65.57 316.60&#10;  Q 65.48 316.38 65.23 316.46&#10;  Q 56.23 319.50 47.53 315.44&#10;  C 43.10 313.38 35.77 311.77 35.09 306.01&#10;  C 33.28 290.65 32.50 276.34 32.54 260.01&#10;  C 32.61 236.68 32.88 213.28 32.24 189.96&#10;  Q 32.09 184.64 32.33 177.25&#10;  Q 32.57 170.00 32.83 145.06&#10;  C 32.92 136.91 33.83 125.61 33.54 115.82&#10;  C 33.41 111.30 33.91 106.34 33.71 101.53&#10;  Z"/>
<rect fill="#191f25" x="-48.24" y="-6.43" transform="translate(318.49,130.79) rotate(-0.1)" width="96.48" height="12.86" rx="0.27"/>
<path fill="#191f25" d="&#10;  M 169.94 137.06&#10;  C 138.75 137.30 107.57 136.83 76.39 136.71&#10;  C 69.84 136.68 69.66 129.74 71.47 125.29&#10;  A 0.89 0.88 -79.5 0 1 72.25 124.75&#10;  Q 74.08 124.69 75.75 124.68&#10;  Q 122.87 124.45 169.99 124.50&#10;  A 0.52 0.52 0.0 0 1 170.51 125.02&#10;  L 170.53 136.47&#10;  Q 170.53 137.06 169.94 137.06&#10;  Z"/>
<path fill="#1b2223" d="&#10;  M 179.30 162.21&#10;  L 95.27 162.55&#10;  A 0.78 0.78 0.0 0 1 94.49 161.77&#10;  L 94.49 150.29&#10;  A 0.78 0.78 0.0 0 1 95.28 149.51&#10;  L 180.17 150.41&#10;  A 0.78 0.78 0.0 0 1 180.94 151.26&#10;  L 180.07 161.50&#10;  A 0.78 0.78 0.0 0 1 179.30 162.21&#10;  Z"/>
<path fill="#1b2223" d="&#10;  M 367.09 154.67&#10;  L 379.88 154.69&#10;  A 1.19 1.19 0.0 0 1 381.07 155.88&#10;  L 381.09 161.84&#10;  A 0.46 0.45 -0.0 0 1 380.63 162.29&#10;  C 351.13 162.37 321.92 161.37 292.21 161.91&#10;  A 0.92 0.91 -0.3 0 1 291.28 161.00&#10;  L 291.26 150.76&#10;  Q 291.26 150.29 291.74 150.29&#10;  L 365.90 150.17&#10;  Q 366.50 150.17 366.50 150.77&#10;  L 366.51 154.09&#10;  Q 366.51 154.67 367.09 154.67&#10;  Z"/>
<path fill="#191f25" d="&#10;  M 105.16 170.06&#10;  Q 105.69 168.28 107.22 169.01&#10;  Q 107.64 169.21 108.11 169.13&#10;  Q 114.38 168.00 122.50 168.37&#10;  Q 125.19 168.49 125.37 171.01&#10;  Q 125.77 176.44 125.33 181.88&#10;  Q 125.29 182.42 124.75 182.42&#10;  L 76.98 182.13&#10;  Q 74.66 182.11 74.66 179.78&#10;  L 74.69 171.83&#10;  A 3.16 3.16 0.0 0 1 77.86 168.67&#10;  L 101.50 168.71&#10;  A 0.69 0.67 60.9 0 1 101.87 168.82&#10;  L 104.37 170.36&#10;  A 0.53 0.53 0.0 0 0 105.16 170.06&#10;  Z"/>
<path fill="#1b2223" d="&#10;  M 320.39 182.50&#10;  L 273.83 182.51&#10;  A 0.56 0.56 0.0 0 1 273.27 181.95&#10;  L 273.32 168.80&#10;  A 0.56 0.56 0.0 0 1 273.88 168.24&#10;  L 324.15 168.35&#10;  A 0.56 0.56 0.0 0 1 324.68 169.06&#10;  L 320.93 182.10&#10;  A 0.56 0.56 0.0 0 1 320.39 182.50&#10;  Z"/>
<path fill="#fe634e" d="&#10;  M 225.66 188.70&#10;  L 225.76 229.07&#10;  A 0.74 0.73 -3.2 0 0 226.57 229.79&#10;  L 233.49 229.10&#10;  Q 234.61 229.92 234.60 232.25&#10;  Q 234.41 262.50 234.28 292.75&#10;  Q 234.26 298.57 230.88 304.31&#10;  Q 200.82 304.82 150.50 304.33&#10;  Q 130.21 304.14 60.30 304.29&#10;  C 56.78 304.30 52.88 303.63 49.13 303.72&#10;  Q 48.25 303.74 48.26 302.86&#10;  Q 48.35 287.26 48.29 272.19&#10;  C 48.29 271.00 47.74 269.54 47.75 268.50&#10;  Q 47.96 253.38 47.96 238.25&#10;  C 47.96 224.08 48.60 207.28 48.06 191.73&#10;  L 65.31 191.49&#10;  L 65.32 196.16&#10;  L 65.33 202.03&#10;  L 65.34 205.69&#10;  Q 65.34 206.26 65.90 206.26&#10;  Q 122.15 206.41 178.40 206.32&#10;  Q 182.48 206.31 190.56 207.04&#10;  Q 198.73 207.77 206.99 207.15&#10;  Q 207.47 207.11 207.47 206.62&#10;  L 207.39 200.18&#10;  L 207.19 193.38&#10;  Q 207.17 192.77 206.56 192.74&#10;  L 201.03 192.47&#10;  L 204.94 192.09&#10;  Q 205.44 192.04 205.85 191.76&#10;  Q 207.80 190.45 209.75 190.27&#10;  Q 217.74 189.52 225.66 188.70&#10;  Z&#10;  M 162.96 291.73&#10;  L 164.18 291.95&#10;  A 1.25 1.25 0.0 0 0 165.16 291.72&#10;  Q 187.37 274.72 207.10 254.91&#10;  A 1.52 1.52 0.0 0 0 206.60 252.43&#10;  L 165.30 235.64&#10;  Q 164.86 235.46 164.70 235.02&#10;  C 162.75 229.45 149.22 226.38 144.22 225.82&#10;  A 0.64 0.64 0.0 0 0 143.58 226.75&#10;  Q 147.26 233.97 154.07 237.21&#10;  Q 173.91 246.64 194.39 255.74&#10;  A 0.71 0.71 0.0 0 1 194.67 256.82&#10;  Q 194.21 257.44 193.37 258.11&#10;  Q 187.45 262.88 182.12 268.30&#10;  C 179.13 271.34 175.24 273.39 172.13 276.23&#10;  Q 165.05 282.73 158.00 289.26&#10;  Q 154.59 292.42 153.41 296.91&#10;  Q 152.21 301.46 156.42 302.54&#10;  A 1.55 1.55 0.0 0 0 157.62 302.35&#10;  Q 161.34 300.00 163.12 295.94&#10;  Q 163.31 295.51 163.17 295.07&#10;  L 162.34 292.43&#10;  Q 162.06 291.56 162.96 291.73&#10;  Z&#10;  M 127.63 252.37&#10;  C 129.76 258.04 130.45 266.86 132.60 274.31&#10;  C 133.70 278.11 134.90 286.65 137.84 289.15&#10;  Q 142.45 293.07 146.08 297.54&#10;  A 0.57 0.57 0.0 0 0 147.09 297.13&#10;  C 146.72 292.78 145.83 286.16 147.94 282.37&#10;  C 150.02 278.62 153.27 273.13 151.99 268.84&#10;  Q 146.59 250.76 142.80 232.24&#10;  C 142.03 228.46 138.75 228.60 136.03 230.21&#10;  Q 130.62 233.38 127.84 239.16&#10;  A 1.03 0.91 89.5 0 1 127.51 239.54&#10;  L 125.57 240.84&#10;  Q 125.06 241.18 125.09 241.79&#10;  Q 125.27 246.13 127.63 252.37&#10;  Z&#10;  M 74.46 248.71&#10;  Q 74.38 248.57 74.22 248.65&#10;  Q 74.08 248.72 74.05 248.87&#10;  Q 73.47 251.78 74.27 255.02&#10;  Q 74.82 256.62 74.58 258.82&#10;  A 0.61 0.60 -86.8 0 1 73.98 259.36&#10;  L 73.51 259.37&#10;  Q 73.05 259.37 72.94 258.92&#10;  Q 72.84 258.46 72.47 258.28&#10;  L 72.24 245.25&#10;  A 0.63 0.63 0.0 0 1 72.89 244.61&#10;  Q 83.17 244.93 93.58 244.68&#10;  Q 95.47 244.64 96.41 243.60&#10;  A 1.82 1.81 22.0 0 0 95.12 240.57&#10;  Q 91.94 240.46 89.46 241.65&#10;  Q 89.07 241.84 88.80 241.50&#10;  L 87.57 239.96&#10;  Q 87.18 239.48 86.58 239.62&#10;  Q 80.88 240.97 75.13 239.95&#10;  C 73.12 239.60 71.43 239.59 69.58 239.70&#10;  A 2.20 2.18 -1.7 0 0 67.51 241.88&#10;  L 67.51 270.75&#10;  Q 67.51 271.34 68.10 271.35&#10;  L 88.54 271.41&#10;  A 0.73 0.73 0.0 0 0 89.27 270.65&#10;  Q 89.22 269.33 90.14 268.44&#10;  Q 90.57 268.03 90.61 267.44&#10;  Q 91.28 257.69 90.00 248.02&#10;  A 1.77 1.75 -3.4 0 0 88.27 246.50&#10;  L 74.76 246.41&#10;  A 0.65 0.64 -76.7 0 0 74.16 246.79&#10;  Q 73.72 247.78 74.46 248.71&#10;  Z&#10;  M 101.53 245.50&#10;  A 0.45 0.45 0.0 0 1 101.47 246.38&#10;  C 100.03 246.53 99.49 247.44 99.52 248.86&#10;  Q 99.73 259.76 100.42 270.75&#10;  A 0.61 0.59 90.0 0 0 100.98 271.32&#10;  Q 110.15 271.84 119.32 271.55&#10;  C 121.16 271.49 122.08 270.71 122.45 268.98&#10;  C 124.53 259.52 121.27 253.88 116.66 245.90&#10;  A 0.63 0.63 0.0 0 1 117.24 244.95&#10;  C 119.44 245.09 123.87 245.41 124.30 242.43&#10;  A 1.75 1.74 -84.5 0 0 122.66 240.43&#10;  L 108.57 239.73&#10;  A 0.60 0.57 32.3 0 0 108.27 239.79&#10;  C 104.96 241.44 102.54 238.01 99.13 240.78&#10;  Q 98.73 241.11 98.69 241.63&#10;  Q 98.49 244.77 101.53 245.50&#10;  Z&#10;  M 93.16 254.22&#10;  L 93.17 266.25&#10;  Q 91.32 267.99 90.97 270.96&#10;  Q 90.91 271.48 91.44 271.48&#10;  L 97.90 271.44&#10;  Q 98.43 271.44 98.46 270.90&#10;  Q 99.05 258.02 98.67 251.49&#10;  Q 98.58 249.97 96.99 248.31&#10;  Q 96.66 247.97 96.27 248.24&#10;  Q 93.32 250.36 93.16 254.22&#10;  Z"/>
<path fill="#1c1925" d="&#10;  M 135.55 192.27&#10;  Q 135.39 194.01 134.66 194.87&#10;  Q 134.29 195.30 133.73 195.25&#10;  Q 129.28 194.84 124.87 195.18&#10;  Q 118.80 195.65 116.08 195.61&#10;  Q 102.82 195.43 89.56 195.69&#10;  Q 88.54 195.71 77.45 195.49&#10;  Q 71.36 195.37 65.32 196.16&#10;  L 65.31 191.49&#10;  L 135.55 192.27&#10;  Z"/>
<path fill="#1b2223" d="&#10;  M 388.49 192.23&#10;  C 389.08 196.83 387.79 201.41 382.29 201.43&#10;  Q 321.66 201.62 259.52 201.44&#10;  Q 258.64 201.44 258.65 200.55&#10;  L 258.72 192.19&#10;  A 0.59 0.59 0.0 0 1 259.31 191.61&#10;  L 388.01 191.80&#10;  Q 388.44 191.80 388.49 192.23&#10;  Z"/>
<path fill="#531636" d="&#10;  M 135.55 192.27&#10;  L 201.03 192.47&#10;  L 206.56 192.74&#10;  Q 207.17 192.77 207.19 193.38&#10;  L 207.39 200.18&#10;  Q 200.60 200.37 193.80 200.75&#10;  Q 186.68 201.15 180.19 200.98&#10;  Q 159.84 200.44 146.00 200.85&#10;  Q 113.57 201.82 91.75 201.42&#10;  Q 78.45 201.18 65.33 202.03&#10;  L 65.32 196.16&#10;  Q 71.36 195.37 77.45 195.49&#10;  Q 88.54 195.71 89.56 195.69&#10;  Q 102.82 195.43 116.08 195.61&#10;  Q 118.80 195.65 124.87 195.18&#10;  Q 129.28 194.84 133.73 195.25&#10;  Q 134.29 195.30 134.66 194.87&#10;  Q 135.39 194.01 135.55 192.27&#10;  Z"/>
<path fill="#1c1925" d="&#10;  M 207.39 200.18&#10;  L 207.47 206.62&#10;  Q 207.47 207.11 206.99 207.15&#10;  Q 198.73 207.77 190.56 207.04&#10;  Q 182.48 206.31 178.40 206.32&#10;  Q 122.15 206.41 65.90 206.26&#10;  Q 65.34 206.26 65.34 205.69&#10;  L 65.33 202.03&#10;  Q 78.45 201.18 91.75 201.42&#10;  Q 113.57 201.82 146.00 200.85&#10;  Q 159.84 200.44 180.19 200.98&#10;  Q 186.68 201.15 193.80 200.75&#10;  Q 200.60 200.37 207.39 200.18&#10;  Z"/>
<path fill="#161712" d="&#10;  M 372.97 248.92&#10;  Q 375.17 247.78 372.86 246.86&#10;  L 317.74 225.03&#10;  Q 317.23 224.83 317.40 224.31&#10;  L 319.05 219.23&#10;  A 1.40 1.40 0.0 0 1 320.74 218.31&#10;  C 326.93 219.96 332.88 223.10 338.17 224.91&#10;  Q 344.02 226.92 349.69 229.39&#10;  Q 366.82 236.82 383.83 244.54&#10;  Q 386.13 245.58 388.11 246.87&#10;  A 1.28 1.27 37.7 0 1 388.36 248.79&#10;  Q 386.38 250.98 383.65 252.43&#10;  Q 358.46 265.85 341.69 273.38&#10;  Q 333.83 276.91 328.98 280.13&#10;  C 327.41 281.17 324.34 282.90 322.52 282.92&#10;  C 317.95 282.98 315.02 277.17 320.54 275.01&#10;  Q 323.73 273.77 326.77 272.28&#10;  Q 350.72 260.58 372.97 248.92&#10;  Z"/>
<path fill="#191f25" d="&#10;  M 162.34 292.43&#10;  L 163.17 295.07&#10;  Q 163.31 295.51 163.12 295.94&#10;  Q 161.34 300.00 157.62 302.35&#10;  A 1.55 1.55 0.0 0 1 156.42 302.54&#10;  Q 152.21 301.46 153.41 296.91&#10;  Q 154.59 292.42 158.00 289.26&#10;  Q 165.05 282.73 172.13 276.23&#10;  C 175.24 273.39 179.13 271.34 182.12 268.30&#10;  Q 187.45 262.88 193.37 258.11&#10;  Q 194.21 257.44 194.67 256.82&#10;  A 0.71 0.71 0.0 0 0 194.39 255.74&#10;  Q 173.91 246.64 154.07 237.21&#10;  Q 147.26 233.97 143.58 226.75&#10;  A 0.64 0.64 0.0 0 1 144.22 225.82&#10;  C 149.22 226.38 162.75 229.45 164.70 235.02&#10;  Q 164.86 235.46 165.30 235.64&#10;  L 206.60 252.43&#10;  A 1.52 1.52 0.0 0 1 207.10 254.91&#10;  Q 187.37 274.72 165.16 291.72&#10;  A 1.25 1.25 0.0 0 1 164.18 291.95&#10;  L 162.96 291.73&#10;  Q 162.06 291.56 162.34 292.43&#10;  Z"/>
<path fill="#fe8a4e" d="&#10;  M 127.63 252.37&#10;  Q 125.27 246.13 125.09 241.79&#10;  Q 125.06 241.18 125.57 240.84&#10;  L 127.51 239.54&#10;  A 1.03 0.91 89.5 0 0 127.84 239.16&#10;  Q 130.62 233.38 136.03 230.21&#10;  C 138.75 228.60 142.03 228.46 142.80 232.24&#10;  Q 146.59 250.76 151.99 268.84&#10;  C 153.27 273.13 150.02 278.62 147.94 282.37&#10;  C 145.83 286.16 146.72 292.78 147.09 297.13&#10;  A 0.57 0.57 0.0 0 1 146.08 297.54&#10;  Q 142.45 293.07 137.84 289.15&#10;  C 134.90 286.65 133.70 278.11 132.60 274.31&#10;  C 130.45 266.86 129.76 258.04 127.63 252.37&#10;  Z"/>
<path fill="#1b2223" d="&#10;  M 72.47 258.28&#10;  C 72.24 261.39 70.80 267.74 75.19 268.47&#10;  Q 75.82 268.58 75.81 267.94&#10;  Q 75.72 259.38 75.29 251.01&#10;  Q 75.19 249.15 74.46 248.71&#10;  Q 73.72 247.78 74.16 246.79&#10;  A 0.65 0.64 -76.7 0 1 74.76 246.41&#10;  L 88.27 246.50&#10;  A 1.77 1.75 -3.4 0 1 90.00 248.02&#10;  Q 91.28 257.69 90.61 267.44&#10;  Q 90.57 268.03 90.14 268.44&#10;  Q 89.22 269.33 89.27 270.65&#10;  A 0.73 0.73 0.0 0 1 88.54 271.41&#10;  L 68.10 271.35&#10;  Q 67.51 271.34 67.51 270.75&#10;  L 67.51 241.88&#10;  A 2.20 2.18 -1.7 0 1 69.58 239.70&#10;  C 71.43 239.59 73.12 239.60 75.13 239.95&#10;  Q 80.88 240.97 86.58 239.62&#10;  Q 87.18 239.48 87.57 239.96&#10;  L 88.80 241.50&#10;  Q 89.07 241.84 89.46 241.65&#10;  Q 91.94 240.46 95.12 240.57&#10;  A 1.82 1.81 22.0 0 1 96.41 243.60&#10;  Q 95.47 244.64 93.58 244.68&#10;  Q 83.17 244.93 72.89 244.61&#10;  A 0.63 0.63 0.0 0 0 72.24 245.25&#10;  L 72.47 258.28&#10;  Z&#10;  M 81.82 265.80&#10;  A 0.54 0.53 -42.8 0 1 81.86 264.80&#10;  Q 83.01 264.41 83.33 265.57&#10;  A 0.45 0.45 0.0 0 0 84.22 265.45&#10;  L 84.19 251.30&#10;  Q 84.19 250.65 83.55 250.64&#10;  L 80.39 250.58&#10;  Q 79.86 250.57 79.78 251.10&#10;  C 79.33 254.37 78.38 267.24 82.91 268.25&#10;  A 0.92 0.92 0.0 0 0 83.47 266.51&#10;  L 81.82 265.80&#10;  Z"/>
<path fill="#20211f" d="&#10;  M 244.00 239.64&#10;  L 292.72 240.01&#10;  A 0.53 0.53 0.0 0 1 293.24 240.53&#10;  L 293.32 271.16&#10;  A 0.53 0.53 0.0 0 1 292.79 271.69&#10;  L 244.12 272.14&#10;  A 0.53 0.53 0.0 0 1 243.59 271.61&#10;  L 243.46 240.18&#10;  A 0.53 0.53 0.0 0 1 244.00 239.64&#10;  Z&#10;  M 259.3291 243.2152&#10;  A 0.28 0.28 0.0 0 0 259.0447 242.9397&#10;  L 250.0858 243.0804&#10;  A 0.28 0.28 0.0 0 0 249.8103 243.3648&#10;  L 249.8109 243.4048&#10;  A 0.28 0.28 0.0 0 0 250.0953 243.6803&#10;  L 259.0542 243.5396&#10;  A 0.28 0.28 0.0 0 0 259.3297 243.2552&#10;  L 259.3291 243.2152&#10;  Z&#10;  M 288.5520 248.5443&#10;  A 0.80 0.80 0.0 0 0 287.7534 247.7429&#10;  L 250.0334 247.6771&#10;  A 0.80 0.80 0.0 0 0 249.2320 248.4757&#10;  L 249.2280 250.7557&#10;  A 0.80 0.80 0.0 0 0 250.0266 251.5571&#10;  L 287.7466 251.6229&#10;  A 0.80 0.80 0.0 0 0 288.5480 250.8243&#10;  L 288.5520 248.5443&#10;  Z&#10;  M 288.8781 255.2054&#10;  A 0.82 0.82 0.0 0 0 288.0566 254.3869&#10;  L 250.0967 254.4531&#10;  A 0.82 0.82 0.0 0 0 249.2781 255.2746&#10;  L 249.2819 257.4546&#10;  A 0.82 0.82 0.0 0 0 250.1034 258.2731&#10;  L 288.0633 258.2069&#10;  A 0.82 0.82 0.0 0 0 288.8819 257.3854&#10;  L 288.8781 255.2054&#10;  Z&#10;  M 287.75 265.26&#10;  A 0.78 0.78 0.0 0 0 288.53 264.44&#10;  L 288.41 262.18&#10;  A 0.78 0.78 0.0 0 0 287.63 261.44&#10;  L 249.72 261.28&#10;  A 0.78 0.78 0.0 0 0 248.94 262.17&#10;  L 249.29 264.62&#10;  A 0.78 0.78 0.0 0 0 250.06 265.29&#10;  L 287.75 265.26&#10;  Z"/>
<path fill="#1b2223" d="&#10;  M 101.53 245.50&#10;  Q 98.49 244.77 98.69 241.63&#10;  Q 98.73 241.11 99.13 240.78&#10;  C 102.54 238.01 104.96 241.44 108.27 239.79&#10;  A 0.60 0.57 32.3 0 1 108.57 239.73&#10;  L 122.66 240.43&#10;  A 1.75 1.74 -84.5 0 1 124.30 242.43&#10;  C 123.87 245.41 119.44 245.09 117.24 244.95&#10;  A 0.63 0.63 0.0 0 0 116.66 245.90&#10;  C 121.27 253.88 124.53 259.52 122.45 268.98&#10;  C 122.08 270.71 121.16 271.49 119.32 271.55&#10;  Q 110.15 271.84 100.98 271.32&#10;  A 0.61 0.59 90.0 0 1 100.42 270.75&#10;  Q 99.73 259.76 99.52 248.86&#10;  C 99.49 247.44 100.03 246.53 101.47 246.38&#10;  A 0.45 0.45 0.0 0 0 101.53 245.50&#10;  Z&#10;  M 107.38 253.99&#10;  L 106.17 254.36&#10;  A 0.73 0.73 0.0 0 0 105.66 255.15&#10;  Q 106.17 258.91 106.38 262.73&#10;  Q 106.52 265.26 107.78 266.35&#10;  C 109.28 267.65 113.97 268.21 114.68 265.49&#10;  Q 117.24 255.66 111.08 247.95&#10;  Q 109.97 246.55 107.72 246.42&#10;  Q 107.18 246.39 107.21 246.93&#10;  L 107.57 253.72&#10;  A 0.27 0.27 0.0 0 1 107.38 253.99&#10;  Z"/>
<rect fill="#fdb24a" x="-4.76" y="-0.30" transform="translate(254.57,243.31) rotate(-0.9)" width="9.52" height="0.60" rx="0.28"/>
<path fill="#fe634e" d="&#10;  M 107.57 253.72&#10;  L 107.21 246.93&#10;  Q 107.18 246.39 107.72 246.42&#10;  Q 109.97 246.55 111.08 247.95&#10;  Q 117.24 255.66 114.68 265.49&#10;  C 113.97 268.21 109.28 267.65 107.78 266.35&#10;  Q 106.52 265.26 106.38 262.73&#10;  Q 106.17 258.91 105.66 255.15&#10;  A 0.73 0.73 0.0 0 1 106.17 254.36&#10;  L 107.38 253.99&#10;  A 0.27 0.27 0.0 0 0 107.57 253.72&#10;  Z&#10;  M 114.33 263.00&#10;  L 108.33 255.17&#10;  Q 108.13 254.91 108.08 255.24&#10;  L 108.01 255.68&#10;  Q 107.92 256.24 108.28 256.69&#10;  Q 110.53 259.51 110.85 263.12&#10;  Q 110.91 263.78 111.58 263.77&#10;  L 113.99 263.72&#10;  A 0.45 0.44 70.6 0 0 114.33 263.00&#10;  Z"/>
<rect fill="#fdb24a" x="-19.66" y="-1.94" transform="translate(268.89,249.65) rotate(0.1)" width="39.32" height="3.88" rx="0.80"/>
<path fill="#1b2223" d="&#10;  M 93.17 266.25&#10;  Q 94.01 260.29 93.16 254.22&#10;  Q 93.32 250.36 96.27 248.24&#10;  Q 96.66 247.97 96.99 248.31&#10;  Q 98.58 249.97 98.67 251.49&#10;  Q 99.05 258.02 98.46 270.90&#10;  Q 98.43 271.44 97.90 271.44&#10;  L 91.44 271.48&#10;  Q 90.91 271.48 90.97 270.96&#10;  Q 91.32 267.99 93.17 266.25&#10;  Z"/>
<path fill="#1c1925" d="&#10;  M 74.46 248.71&#10;  Q 75.76 252.48 74.27 255.02&#10;  Q 73.47 251.78 74.05 248.87&#10;  Q 74.08 248.72 74.22 248.65&#10;  Q 74.38 248.57 74.46 248.71&#10;  Z"/>
<path fill="#ae272a" d="&#10;  M 74.46 248.71&#10;  Q 75.19 249.15 75.29 251.01&#10;  Q 75.72 259.38 75.81 267.94&#10;  Q 75.82 268.58 75.19 268.47&#10;  C 70.80 267.74 72.24 261.39 72.47 258.28&#10;  Q 72.84 258.46 72.94 258.92&#10;  Q 73.05 259.37 73.51 259.37&#10;  L 73.98 259.36&#10;  A 0.61 0.60 -86.8 0 0 74.58 258.82&#10;  Q 74.82 256.62 74.27 255.02&#10;  Q 75.76 252.48 74.46 248.71&#10;  Z"/>
<path fill="#fe634e" d="&#10;  M 81.82 265.80&#10;  L 83.47 266.51&#10;  A 0.92 0.92 0.0 0 1 82.91 268.25&#10;  C 78.38 267.24 79.33 254.37 79.78 251.10&#10;  Q 79.86 250.57 80.39 250.58&#10;  L 83.55 250.64&#10;  Q 84.19 250.65 84.19 251.30&#10;  L 84.22 265.45&#10;  A 0.45 0.45 0.0 0 1 83.33 265.57&#10;  Q 83.01 264.41 81.86 264.80&#10;  A 0.54 0.53 -42.8 0 0 81.82 265.80&#10;  Z"/>
<path fill="#20211f" d="&#10;  M 93.16 254.22&#10;  Q 94.01 260.29 93.17 266.25&#10;  L 93.16 254.22&#10;  Z"/>
<rect fill="#fdb24a" x="-19.80" y="-1.91" transform="translate(269.08,256.33) rotate(-0.1)" width="39.60" height="3.82" rx="0.82"/>
<path fill="#20211f" d="&#10;  M 108.33 255.17&#10;  L 114.33 263.00&#10;  A 0.45 0.44 70.6 0 1 113.99 263.72&#10;  L 111.58 263.77&#10;  Q 110.91 263.78 110.85 263.12&#10;  Q 110.53 259.51 108.28 256.69&#10;  Q 107.92 256.24 108.01 255.68&#10;  L 108.08 255.24&#10;  Q 108.13 254.91 108.33 255.17&#10;  Z"/>
<path fill="#fdb24a" d="&#10;  M 287.75 265.26&#10;  L 250.06 265.29&#10;  A 0.78 0.78 0.0 0 1 249.29 264.62&#10;  L 248.94 262.17&#10;  A 0.78 0.78 0.0 0 1 249.72 261.28&#10;  L 287.63 261.44&#10;  A 0.78 0.78 0.0 0 1 288.41 262.18&#10;  L 288.53 264.44&#10;  A 0.78 0.78 0.0 0 1 287.75 265.26&#10;  Z"/>
<path fill="#20211f" d="&#10;  M 287.36 351.29&#10;  L 287.30 399.98&#10;  A 1.33 1.32 89.8 0 0 288.63 401.31&#10;  Q 308.24 401.23 327.75 401.32&#10;  C 331.90 401.34 335.61 401.20 337.89 405.09&#10;  Q 340.46 409.47 337.97 414.95&#10;  Q 337.77 415.39 337.29 415.49&#10;  C 333.89 416.16 332.73 413.90 330.94 411.64&#10;  A 1.11 1.10 -18.8 0 0 330.07 411.22&#10;  L 245.55 411.21&#10;  L 237.41 410.32&#10;  Q 236.44 410.21 237.21 409.61&#10;  Q 237.78 409.17 238.43 409.37&#10;  A 0.35 0.35 0.0 0 0 238.87 408.96&#10;  Q 238.71 408.18 237.78 408.29&#10;  A 0.80 0.80 0.0 0 1 236.89 407.51&#10;  L 236.74 402.61&#10;  A 0.83 0.83 0.0 0 0 235.94 401.80&#10;  L 229.94 401.54&#10;  L 275.49 401.49&#10;  Q 276.64 401.49 276.64 400.34&#10;  L 276.72 350.75&#10;  Q 279.01 349.91 280.75 350.12&#10;  Q 282.34 350.32 287.36 351.29&#10;  Z"/>
<path fill="#b09d93" d="&#10;  M 235.74 350.82&#10;  L 233.29 354.24&#10;  A 0.81 0.81 0.0 0 1 231.85 353.96&#10;  C 231.02 350.51 224.59 351.16 221.91 351.18&#10;  A 1.39 1.37 4.8 0 0 220.56 352.31&#10;  C 218.78 361.92 220.93 372.88 233.79 370.63&#10;  C 243.24 368.98 244.38 357.15 239.33 350.82&#10;  L 276.72 350.75&#10;  L 276.64 400.34&#10;  Q 276.64 401.49 275.49 401.49&#10;  L 229.94 401.54&#10;  L 182.45 401.35&#10;  A 0.65 0.65 0.0 0 1 181.80 400.70&#10;  L 181.73 351.03&#10;  Q 181.73 350.68 182.08 350.68&#10;  L 235.74 350.82&#10;  Z"/>
<path fill="#161712" d="&#10;  M 235.74 350.82&#10;  L 239.33 350.82&#10;  C 244.38 357.15 243.24 368.98 233.79 370.63&#10;  C 220.93 372.88 218.78 361.92 220.56 352.31&#10;  A 1.39 1.37 4.8 0 1 221.91 351.18&#10;  C 224.59 351.16 231.02 350.51 231.85 353.96&#10;  A 0.81 0.81 0.0 0 0 233.29 354.24&#10;  L 235.74 350.82&#10;  Z"/>
</svg>