<?xml version="1.0" standalone="no"?>
<!DOCTYPE svg PUBLIC "-//W3C//DTD SVG 20010904//EN"
 "http://www.w3.org/TR/2001/REC-SVG-20010904/DTD/svg10.dtd">
<svg version="1.0" xmlns="http://www.w3.org/2000/svg"
 width="920.000000pt" height="920.000000pt" viewBox="0 0 920.000000 920.000000"
 preserveAspectRatio="xMidYMid meet">
<metadata>
Created by potrace 1.14, written by Peter Selinger 2001-2017
</metadata>
<g transform="translate(0.000000,920.000000) scale(0.100000,-0.100000)"
fill="#000000" stroke="none">
<path d="M12 8753 c-4 -10 -7 -1566 -7 -3458 0 -3422 0 -3440 20 -3474 11 -19
33 -43 48 -55 29 -21 31 -21 685 -17 361 2 1117 0 1680 -4 l1022 -7 0 -503 0
-502 -37 -7 c-21 -3 -239 -6 -485 -6 -271 0 -457 -4 -473 -10 -48 -18 -70
-122 -36 -164 9 -10 260 -14 1158 -20 708 -4 1182 -11 1238 -17 65 -8 90 -8
93 0 3 8 244 11 854 11 l851 0 41 -45 c33 -35 49 -45 75 -45 28 0 34 5 48 37
20 50 14 144 -13 180 -11 15 -33 36 -48 47 -27 20 -42 21 -494 26 l-467 5 0
505 0 505 615 3 c338 2 1093 6 1677 10 1056 7 1062 7 1090 28 15 11 34 32 41
46 10 21 11 713 5 3485 l-8 3458 -4583 3 c-4357 2 -4583 1 -4590 -15z m824
-432 c78 -35 124 -132 124 -255 -1 -96 -25 -164 -69 -193 -28 -19 -47 -23
-105 -22 -39 0 -89 6 -110 12 -35 11 -43 19 -62 67 -22 54 -23 55 -59 52 -48
-4 -101 14 -120 41 -17 24 -20 118 -5 147 13 23 61 40 119 40 44 0 47 2 66 42
38 77 135 108 221 69z m696 9 c57 -16 119 -69 150 -129 55 -106 30 -235 -62
-313 -76 -66 -198 -79 -291 -30 -45 23 -59 37 -83 85 -50 98 -38 224 29 313
52 68 163 100 257 74z m753 -19 c126 -57 185 -192 140 -320 -46 -131 -181
-191 -328 -147 -96 29 -145 91 -154 197 -7 77 24 183 67 224 65 63 192 84 275
46z m2223 -2103 l-3 -1203 -155 -12 c-101 -9 -172 -20 -205 -32 -27 -11 -67
-22 -88 -24 -20 -3 -547 -2 -1170 3 -622 5 -1315 10 -1539 10 l-408 0 0 494
c0 271 -3 824 -7 1229 l-6 737 1791 0 1792 0 -2 -1202z m3722 -1163 l0 -2365
-1799 0 -1800 0 27 58 c24 51 27 73 33 212 12 252 10 1218 -1 1225 -12 7 -14
1820 -3 2688 l6 547 1769 0 1768 0 0 -2365z"/>
<path d="M2041 8183 c-35 -43 -37 -72 -10 -122 29 -54 51 -70 72 -52 14 11 14
16 1 47 -14 34 -14 34 20 55 32 19 34 22 24 50 -19 54 -74 65 -107 22z"/>
<path d="M2010 7970 c0 -5 4 -10 9 -10 6 0 13 5 16 10 3 6 -1 10 -9 10 -9 0
-16 -4 -16 -10z"/>
<path d="M1260 6655 c0 -125 0 -125 26 -137 20 -9 40 -9 92 2 55 12 272 15
1213 17 964 3 1149 5 1158 17 8 10 10 45 5 120 l-7 106 -1243 0 -1244 0 0
-125z"/>
<path d="M1413 6292 c-20 -13 -34 -108 -24 -154 5 -23 21 -53 36 -67 l25 -26
971 -8 c753 -7 973 -6 984 3 16 13 20 111 9 208 l-7 52 -991 0 c-545 0 -997
-4 -1003 -8z"/>
<path d="M1873 5785 c-2 -6 -2 -67 -1 -136 l3 -124 850 -2 c468 -2 856 1 864
6 13 9 30 116 31 202 l0 47 -302 6 c-572 12 -1440 12 -1445 1z"/>
<path d="M2200 5409 c-25 -4 -57 -6 -71 -3 -16 3 -31 -1 -38 -10 -12 -14 -16
-14 -42 -1 -22 12 -78 15 -284 15 -315 0 -295 10 -295 -149 0 -102 2 -111 22
-125 20 -14 85 -16 515 -16 l492 0 7 46 c3 25 4 84 2 131 -6 118 -14 123 -157
122 -58 -1 -126 -5 -151 -10z"/>
<path d="M5157 6783 c-11 -10 -8 -172 3 -194 10 -19 34 -19 1154 -19 1118 0
1145 0 1187 -20 53 -23 97 -25 145 -5 l35 14 -3 113 -3 113 -1256 3 c-690 1
-1259 -1 -1262 -5z"/>
<path d="M5510 6301 l-105 -6 -3 -40 c-2 -22 -1 -82 3 -132 l7 -93 973 0 c878
0 973 2 979 16 3 9 6 64 6 124 0 60 -3 115 -6 124 -6 14 -91 16 -878 14 -479
-1 -918 -4 -976 -7z"/>
<path d="M6023 5783 l-193 -3 0 -120 c0 -65 3 -121 8 -123 4 -3 412 -6 907 -8
l900 -4 3 75 c4 99 3 100 -159 100 l-128 0 -3 43 -3 42 -570 0 c-313 0 -657
-1 -762 -2z"/>
<path d="M5470 5270 l0 -150 485 0 c267 0 485 1 485 3 0 1 18 65 40 141 22 76
37 143 34 147 -3 5 -239 9 -525 9 l-519 0 0 -150z"/>
<path d="M5174 4937 c-3 -8 -4 -54 -2 -102 l3 -89 40 -9 c22 -4 591 -7 1265
-5 1149 3 1227 4 1257 21 18 9 40 31 48 48 17 32 24 117 11 137 -11 19 -2615
17 -2622 -1z"/>
<path d="M6396 4401 c-17 -26 -45 -125 -39 -132 5 -4 51 -24 103 -44 52 -20
282 -111 510 -202 228 -91 439 -174 468 -185 28 -11 52 -23 52 -28 0 -13 -793
-417 -991 -505 -57 -25 -112 -55 -121 -66 -46 -55 4 -139 82 -139 45 0 65 9
186 81 44 27 141 76 215 110 292 133 840 414 901 462 65 52 60 71 -31 117 -81
40 -669 301 -786 348 -436 176 -534 208 -549 183z"/>
<path d="M4869 3973 c-6 -7 -7 -130 -3 -332 l7 -321 504 0 503 0 0 325 c0 252
-3 327 -12 330 -7 3 -233 6 -501 7 -362 2 -491 0 -498 -9z m897 -176 c1 -1 4
-13 6 -27 l3 -25 -387 -3 -388 -2 0 36 0 37 382 -7 c210 -4 383 -8 384 -9z
m14 -157 l0 -30 -390 0 -390 0 0 30 0 30 390 0 390 0 0 -30z m-10 -140 l0 -30
-385 0 c-212 0 -385 3 -385 8 0 4 -3 17 -6 30 l-6 22 391 0 391 0 0 -30z"/>
</g>
</svg>
